<svg width="1112" height="2134" viewBox="0 0 1112 2134" fill="none" xmlns="http://www.w3.org/2000/svg">
<rect x="766" y="2006" width="345.809" height="112" rx="44.8" fill="#FF9790"/>
<rect x="768" y="2008" width="341.809" height="108" rx="42.8" stroke="black" stroke-opacity="0.2" stroke-width="4"/>
<path d="M807.157 2071L808.76 2066.38H815.578L817.171 2071H819.967L813.686 2053.55H810.643L804.362 2071H807.157ZM809.527 2064.16L812.1 2056.72H812.237L814.811 2064.16H809.527ZM821.827 2075.91H824.375V2068.96H824.529C824.989 2069.8 825.926 2071.26 828.313 2071.26C831.483 2071.26 833.784 2068.72 833.784 2064.48C833.784 2060.24 831.449 2057.74 828.287 2057.74C825.858 2057.74 824.98 2059.22 824.529 2060.03H824.316V2057.91H821.827V2075.91ZM824.324 2064.45C824.324 2061.72 825.517 2059.9 827.742 2059.9C830.051 2059.9 831.211 2061.86 831.211 2064.45C831.211 2067.08 830.017 2069.08 827.742 2069.08C825.551 2069.08 824.324 2067.21 824.324 2064.45ZM836.183 2075.91H838.732V2068.96H838.885C839.345 2069.8 840.283 2071.26 842.669 2071.26C845.84 2071.26 848.141 2068.72 848.141 2064.48C848.141 2060.24 845.806 2057.74 842.644 2057.74C840.215 2057.74 839.337 2059.22 838.885 2060.03H838.672V2057.91H836.183V2075.91ZM838.681 2064.45C838.681 2061.72 839.874 2059.9 842.098 2059.9C844.408 2059.9 845.567 2061.86 845.567 2064.45C845.567 2067.08 844.374 2069.08 842.098 2069.08C839.908 2069.08 838.681 2067.21 838.681 2064.45ZM853.088 2053.55H850.54V2071H853.088V2053.55ZM857.671 2075.88C859.776 2075.88 861.115 2074.78 861.865 2072.75L867.276 2057.93L864.524 2057.91L861.208 2068.07H861.072L857.757 2057.91H855.029L859.819 2071.17L859.504 2072.04C858.856 2073.74 857.944 2073.89 856.546 2073.51L855.933 2075.59C856.24 2075.74 856.904 2075.88 857.671 2075.88ZM875.117 2071H877.666V2063.01C877.666 2061.29 878.987 2060.06 880.793 2060.06C881.322 2060.06 881.918 2060.15 882.123 2060.21V2057.77C881.867 2057.74 881.364 2057.71 881.041 2057.71C879.507 2057.71 878.194 2058.58 877.717 2059.99H877.58V2057.91H875.117V2071ZM889.046 2071.26C891.901 2071.26 893.921 2069.86 894.5 2067.73L892.088 2067.29C891.628 2068.53 890.52 2069.16 889.071 2069.16C886.889 2069.16 885.423 2067.74 885.355 2065.22H894.662V2064.32C894.662 2059.59 891.832 2057.74 888.867 2057.74C885.219 2057.74 882.815 2060.52 882.815 2064.54C882.815 2068.61 885.185 2071.26 889.046 2071.26ZM885.364 2063.31C885.466 2061.45 886.813 2059.84 888.884 2059.84C890.861 2059.84 892.156 2061.31 892.165 2063.31H885.364ZM902.548 2071.26C905.641 2071.26 907.644 2069.41 907.925 2066.86H905.445C905.122 2068.27 904.022 2069.11 902.565 2069.11C900.408 2069.11 899.019 2067.31 899.019 2064.45C899.019 2061.65 900.434 2059.89 902.565 2059.89C904.184 2059.89 905.173 2060.91 905.445 2062.14H907.925C907.653 2059.49 905.497 2057.74 902.522 2057.74C898.832 2057.74 896.445 2060.52 896.445 2064.51C896.445 2068.46 898.747 2071.26 902.548 2071.26ZM915.709 2071.26C919.399 2071.26 921.811 2068.56 921.811 2064.51C921.811 2060.44 919.399 2057.74 915.709 2057.74C912.018 2057.74 909.607 2060.44 909.607 2064.51C909.607 2068.56 912.018 2071.26 915.709 2071.26ZM915.717 2069.12C913.305 2069.12 912.18 2067.02 912.18 2064.51C912.18 2062 913.305 2059.87 915.717 2059.87C918.112 2059.87 919.237 2062 919.237 2064.51C919.237 2067.02 918.112 2069.12 915.717 2069.12ZM924.2 2071H926.748V2062.93C926.748 2061.16 927.984 2059.94 929.433 2059.94C930.847 2059.94 931.827 2060.88 931.827 2062.3V2071H934.367V2062.66C934.367 2061.08 935.33 2059.94 936.992 2059.94C938.339 2059.94 939.447 2060.69 939.447 2062.46V2071H941.995V2062.22C941.995 2059.23 940.325 2057.74 937.955 2057.74C936.072 2057.74 934.657 2058.64 934.026 2060.04H933.89C933.319 2058.61 932.117 2057.74 930.37 2057.74C928.64 2057.74 927.353 2058.6 926.808 2060.04H926.646V2057.91H924.2V2071ZM944.954 2071H947.503V2062.93C947.503 2061.16 948.739 2059.94 950.187 2059.94C951.602 2059.94 952.582 2060.88 952.582 2062.3V2071H955.122V2062.66C955.122 2061.08 956.085 2059.94 957.747 2059.94C959.094 2059.94 960.202 2060.69 960.202 2062.46V2071H962.75V2062.22C962.75 2059.23 961.079 2057.74 958.71 2057.74C956.827 2057.74 955.412 2058.64 954.781 2060.04H954.645C954.074 2058.61 952.872 2057.74 951.125 2057.74C949.395 2057.74 948.108 2058.6 947.562 2060.04H947.401V2057.91H944.954V2071ZM971.351 2071.26C974.207 2071.26 976.226 2069.86 976.806 2067.73L974.394 2067.29C973.934 2068.53 972.826 2069.16 971.377 2069.16C969.195 2069.16 967.729 2067.74 967.661 2065.22H976.968V2064.32C976.968 2059.59 974.138 2057.74 971.173 2057.74C967.525 2057.74 965.121 2060.52 965.121 2064.54C965.121 2068.61 967.491 2071.26 971.351 2071.26ZM967.67 2063.31C967.772 2061.45 969.119 2059.84 971.19 2059.84C973.167 2059.84 974.462 2061.31 974.471 2063.31H967.67ZM981.888 2063.23C981.888 2061.14 983.166 2059.95 984.939 2059.95C986.669 2059.95 987.717 2061.08 987.717 2062.98V2071H990.266V2062.67C990.266 2059.43 988.484 2057.74 985.808 2057.74C983.839 2057.74 982.552 2058.65 981.947 2060.04H981.785V2057.91H979.339V2071H981.888V2063.23ZM998.128 2071.26C1000.51 2071.26 1001.45 2069.8 1001.91 2068.96H1002.12V2071H1004.61V2053.55H1002.07V2060.03H1001.91C1001.45 2059.22 1000.58 2057.74 998.145 2057.74C994.983 2057.74 992.656 2060.24 992.656 2064.48C992.656 2068.72 994.949 2071.26 998.128 2071.26ZM998.69 2069.08C996.415 2069.08 995.23 2067.08 995.23 2064.45C995.23 2061.86 996.389 2059.9 998.69 2059.9C1000.91 2059.9 1002.11 2061.72 1002.11 2064.45C1002.11 2067.21 1000.89 2069.08 998.69 2069.08ZM1011.6 2071.29C1013.77 2071.29 1014.99 2070.19 1015.47 2069.21H1015.58V2071H1018.06V2062.31C1018.06 2058.5 1015.06 2057.74 1012.98 2057.74C1010.62 2057.74 1008.43 2058.69 1007.58 2061.08L1009.98 2061.62C1010.35 2060.7 1011.31 2059.8 1013.02 2059.8C1014.66 2059.8 1015.51 2060.66 1015.51 2062.14V2062.2C1015.51 2063.13 1014.55 2063.12 1012.2 2063.39C1009.72 2063.68 1007.18 2064.33 1007.18 2067.3C1007.18 2069.88 1009.12 2071.29 1011.6 2071.29ZM1012.16 2069.24C1010.72 2069.24 1009.68 2068.6 1009.68 2067.34C1009.68 2065.97 1010.89 2065.49 1012.36 2065.29C1013.19 2065.18 1015.15 2064.96 1015.52 2064.59V2066.28C1015.52 2067.83 1014.28 2069.24 1012.16 2069.24ZM1027.11 2057.91H1024.43V2054.77H1021.88V2057.91H1019.96V2059.95H1021.88V2067.68C1021.87 2070.06 1023.69 2071.21 1025.7 2071.17C1026.51 2071.16 1027.05 2071.01 1027.35 2070.9L1026.89 2068.79C1026.72 2068.83 1026.41 2068.9 1026 2068.9C1025.17 2068.9 1024.43 2068.63 1024.43 2067.16V2059.95H1027.11V2057.91ZM1029.48 2071H1032.02V2057.91H1029.48V2071ZM1030.76 2055.89C1031.64 2055.89 1032.37 2055.21 1032.37 2054.37C1032.37 2053.54 1031.64 2052.85 1030.76 2052.85C1029.88 2052.85 1029.15 2053.54 1029.15 2054.37C1029.15 2055.21 1029.88 2055.89 1030.76 2055.89ZM1040.51 2071.26C1044.2 2071.26 1046.61 2068.56 1046.61 2064.51C1046.61 2060.44 1044.2 2057.74 1040.51 2057.74C1036.82 2057.74 1034.41 2060.44 1034.41 2064.51C1034.41 2068.56 1036.82 2071.26 1040.51 2071.26ZM1040.52 2069.12C1038.11 2069.12 1036.98 2067.02 1036.98 2064.51C1036.98 2062 1038.11 2059.87 1040.52 2059.87C1042.91 2059.87 1044.04 2062 1044.04 2064.51C1044.04 2067.02 1042.91 2069.12 1040.52 2069.12ZM1051.55 2063.23C1051.55 2061.14 1052.83 2059.95 1054.6 2059.95C1056.33 2059.95 1057.38 2061.08 1057.38 2062.98V2071H1059.93V2062.67C1059.93 2059.43 1058.15 2057.74 1055.47 2057.74C1053.5 2057.74 1052.21 2058.65 1051.61 2060.04H1051.45V2057.91H1049V2071H1051.55V2063.23ZM1072.7 2061.11C1072.17 2059.07 1070.58 2057.74 1067.75 2057.74C1064.79 2057.74 1062.69 2059.3 1062.69 2061.62C1062.69 2063.47 1063.82 2064.71 1066.27 2065.26L1068.49 2065.74C1069.75 2066.02 1070.34 2066.59 1070.34 2067.4C1070.34 2068.42 1069.26 2069.21 1067.59 2069.21C1066.06 2069.21 1065.08 2068.55 1064.77 2067.27L1062.31 2067.64C1062.74 2069.96 1064.66 2071.26 1067.6 2071.26C1070.76 2071.26 1072.95 2069.59 1072.95 2067.22C1072.95 2065.37 1071.78 2064.22 1069.38 2063.67L1067.3 2063.19C1065.86 2062.85 1065.23 2062.37 1065.24 2061.48C1065.23 2060.47 1066.32 2059.76 1067.77 2059.76C1069.36 2059.76 1070.09 2060.64 1070.39 2061.51L1072.7 2061.11Z" fill="#333333"/>
<rect x="268" y="1708" width="279.941" height="106.455" rx="6" fill="#D99BFF"/>
<rect x="270" y="1710" width="275.941" height="102.455" rx="4" stroke="black" stroke-opacity="0.2" stroke-width="4"/>
<path d="M293.824 1754L295.426 1749.38H302.244L303.838 1754H306.633L300.352 1736.55H297.309L291.028 1754H293.824ZM296.193 1747.16L298.767 1739.72H298.903L301.477 1747.16H296.193ZM311.042 1736.55H308.493V1754H311.042V1736.55ZM314.014 1754H316.562V1740.91H314.014V1754ZM315.301 1738.89C316.179 1738.89 316.912 1738.21 316.912 1737.37C316.912 1736.54 316.179 1735.85 315.301 1735.85C314.414 1735.85 313.69 1736.54 313.69 1737.37C313.69 1738.21 314.414 1738.89 315.301 1738.89ZM325.023 1759.16C328.355 1759.16 330.929 1757.63 330.929 1754.29V1740.91H328.432V1743.03H328.245C327.793 1742.22 326.89 1740.74 324.452 1740.74C321.29 1740.74 318.963 1743.24 318.963 1747.4C318.963 1751.58 321.341 1753.8 324.435 1753.8C326.838 1753.8 327.767 1752.45 328.228 1751.61H328.39V1754.19C328.39 1756.21 326.983 1757.1 325.049 1757.1C322.927 1757.1 322.1 1756.04 321.648 1755.31L319.458 1756.22C320.148 1757.79 321.895 1759.16 325.023 1759.16ZM324.998 1751.69C322.722 1751.69 321.537 1749.94 321.537 1747.37C321.537 1744.86 322.696 1742.9 324.998 1742.9C327.222 1742.9 328.415 1744.72 328.415 1747.37C328.415 1750.07 327.196 1751.69 324.998 1751.69ZM336.439 1746.23C336.439 1744.14 337.718 1742.95 339.49 1742.95C341.221 1742.95 342.269 1744.08 342.269 1745.98V1754H344.817V1745.67C344.817 1742.43 343.036 1740.74 340.36 1740.74C338.391 1740.74 337.104 1741.65 336.499 1743.04H336.337V1740.91H333.891V1754H336.439V1746.23ZM355.285 1758.88C357.39 1758.88 358.728 1757.78 359.478 1755.75L364.89 1740.93L362.137 1740.91L358.822 1751.07H358.686L355.37 1740.91H352.643L357.433 1754.17L357.117 1755.04C356.47 1756.74 355.558 1756.89 354.16 1756.51L353.546 1758.59C353.853 1758.74 354.518 1758.88 355.285 1758.88ZM371.881 1754.26C375.571 1754.26 377.983 1751.56 377.983 1747.51C377.983 1743.44 375.571 1740.74 371.881 1740.74C368.191 1740.74 365.779 1743.44 365.779 1747.51C365.779 1751.56 368.191 1754.26 371.881 1754.26ZM371.889 1752.12C369.478 1752.12 368.353 1750.02 368.353 1747.51C368.353 1745 369.478 1742.87 371.889 1742.87C374.284 1742.87 375.409 1745 375.409 1747.51C375.409 1750.02 374.284 1752.12 371.889 1752.12ZM388.664 1748.57C388.673 1750.8 387.019 1751.85 385.588 1751.85C384.011 1751.85 382.92 1750.71 382.92 1748.93V1740.91H380.372V1749.24C380.372 1752.48 382.153 1754.17 384.667 1754.17C386.636 1754.17 387.974 1753.13 388.579 1751.73H388.715V1754H391.221V1740.91H388.664V1748.57ZM394.189 1754H396.737V1746.01C396.737 1744.29 398.058 1743.06 399.865 1743.06C400.394 1743.06 400.99 1743.15 401.195 1743.21V1740.77C400.939 1740.74 400.436 1740.71 400.112 1740.71C398.578 1740.71 397.266 1741.58 396.789 1742.99H396.652V1740.91H394.189V1754ZM408.84 1758.91H411.388V1751.96H411.541C412.002 1752.8 412.939 1754.26 415.325 1754.26C418.496 1754.26 420.797 1751.72 420.797 1747.48C420.797 1743.24 418.462 1740.74 415.3 1740.74C412.871 1740.74 411.993 1742.22 411.541 1743.03H411.328V1740.91H408.84V1758.91ZM411.337 1747.45C411.337 1744.72 412.53 1742.9 414.754 1742.9C417.064 1742.9 418.223 1744.86 418.223 1747.45C418.223 1750.08 417.03 1752.08 414.754 1752.08C412.564 1752.08 411.337 1750.21 411.337 1747.45ZM423.196 1754H425.744V1746.01C425.744 1744.29 427.065 1743.06 428.872 1743.06C429.401 1743.06 429.997 1743.15 430.202 1743.21V1740.77C429.946 1740.74 429.443 1740.71 429.119 1740.71C427.585 1740.71 426.273 1741.58 425.796 1742.99H425.659V1740.91H423.196V1754ZM435.644 1754.29C437.808 1754.29 439.027 1753.19 439.513 1752.21H439.615V1754H442.104V1745.31C442.104 1741.5 439.104 1740.74 437.024 1740.74C434.655 1740.74 432.473 1741.69 431.621 1744.08L434.016 1744.62C434.391 1743.7 435.345 1742.8 437.058 1742.8C438.703 1742.8 439.547 1743.66 439.547 1745.14V1745.2C439.547 1746.13 438.592 1746.12 436.24 1746.39C433.76 1746.68 431.22 1747.33 431.22 1750.3C431.22 1752.88 433.155 1754.29 435.644 1754.29ZM436.197 1752.24C434.757 1752.24 433.717 1751.6 433.717 1750.34C433.717 1748.97 434.928 1748.49 436.402 1748.29C437.229 1748.18 439.189 1747.96 439.555 1747.59V1749.28C439.555 1750.83 438.32 1752.24 436.197 1752.24ZM450.556 1754.26C453.65 1754.26 455.653 1752.41 455.934 1749.86H453.454C453.13 1751.27 452.031 1752.11 450.573 1752.11C448.417 1752.11 447.028 1750.31 447.028 1747.45C447.028 1744.65 448.442 1742.89 450.573 1742.89C452.192 1742.89 453.181 1743.91 453.454 1745.14H455.934C455.661 1742.49 453.505 1740.74 450.531 1740.74C446.84 1740.74 444.454 1743.52 444.454 1747.51C444.454 1751.46 446.755 1754.26 450.556 1754.26ZM464.314 1740.91H461.629V1737.77H459.081V1740.91H457.163V1742.95H459.081V1750.68C459.072 1753.06 460.888 1754.21 462.899 1754.17C463.709 1754.16 464.254 1754.01 464.553 1753.9L464.092 1751.79C463.922 1751.83 463.606 1751.9 463.197 1751.9C462.371 1751.9 461.629 1751.63 461.629 1750.16V1742.95H464.314V1740.91ZM466.677 1754H469.225V1740.91H466.677V1754ZM467.964 1738.89C468.842 1738.89 469.575 1738.21 469.575 1737.37C469.575 1736.54 468.842 1735.85 467.964 1735.85C467.077 1735.85 466.353 1736.54 466.353 1737.37C466.353 1738.21 467.077 1738.89 467.964 1738.89ZM477.712 1754.26C480.805 1754.26 482.808 1752.41 483.089 1749.86H480.609C480.285 1751.27 479.186 1752.11 477.729 1752.11C475.572 1752.11 474.183 1750.31 474.183 1747.45C474.183 1744.65 475.598 1742.89 477.729 1742.89C479.348 1742.89 480.337 1743.91 480.609 1745.14H483.089C482.817 1742.49 480.66 1740.74 477.686 1740.74C473.996 1740.74 471.609 1743.52 471.609 1747.51C471.609 1751.46 473.91 1754.26 477.712 1754.26ZM491.001 1754.26C493.856 1754.26 495.876 1752.86 496.455 1750.73L494.043 1750.29C493.583 1751.53 492.475 1752.16 491.026 1752.16C488.844 1752.16 487.378 1750.74 487.31 1748.22H496.617V1747.32C496.617 1742.59 493.788 1740.74 490.822 1740.74C487.174 1740.74 484.77 1743.52 484.77 1747.54C484.77 1751.61 487.14 1754.26 491.001 1754.26ZM487.319 1746.31C487.421 1744.45 488.768 1742.84 490.839 1742.84C492.816 1742.84 494.111 1744.31 494.12 1746.31H487.319ZM510.995 1740.91H508.31V1737.77H505.762V1740.91H503.844V1742.95H505.762V1750.68C505.753 1753.06 507.569 1754.21 509.58 1754.17C510.39 1754.16 510.935 1754.01 511.233 1753.9L510.773 1751.79C510.603 1751.83 510.287 1751.9 509.878 1751.9C509.052 1751.9 508.31 1751.63 508.31 1750.16V1742.95H510.995V1740.91ZM518.731 1754.26C522.422 1754.26 524.834 1751.56 524.834 1747.51C524.834 1743.44 522.422 1740.74 518.731 1740.74C515.041 1740.74 512.629 1743.44 512.629 1747.51C512.629 1751.56 515.041 1754.26 518.731 1754.26ZM518.74 1752.12C516.328 1752.12 515.203 1750.02 515.203 1747.51C515.203 1745 516.328 1742.87 518.74 1742.87C521.135 1742.87 522.26 1745 522.26 1747.51C522.26 1750.02 521.135 1752.12 518.74 1752.12ZM387.347 1786H390.007L393.68 1772.93H393.816L397.489 1786H400.14L404.989 1768.55H402.211L398.819 1782.07H398.657L395.12 1768.55H392.376L388.839 1782.06H388.677L385.276 1768.55H382.507L387.347 1786ZM406.909 1786L408.511 1781.38H415.33L416.923 1786H419.719L413.438 1768.55H410.395L404.114 1786H406.909ZM409.279 1779.16L411.852 1771.72H411.989L414.563 1779.16H409.279ZM421.783 1786H424.417V1778.39H431.832V1776.13H424.417V1770.81H432.607V1768.55H421.783V1786Z" fill="#333333"/>
<rect x="475" width="368" height="144" rx="57.6" fill="#FFD233"/>
<rect x="477" y="2" width="364" height="140" rx="55.6" stroke="black" stroke-opacity="0.2" stroke-width="4"/>
<path d="M571.339 65H573.998L577.671 51.9261H577.807L581.481 65H584.131L588.981 47.5455H586.202L582.81 61.071H582.648L579.111 47.5455H576.367L572.83 61.0625H572.668L569.268 47.5455H566.498L571.339 65ZM595.074 65.2642C597.93 65.2642 599.949 63.858 600.529 61.7273L598.117 61.2926C597.657 62.5284 596.549 63.1591 595.1 63.1591C592.918 63.1591 591.452 61.7443 591.384 59.2216H600.691V58.3182C600.691 53.5881 597.861 51.7386 594.895 51.7386C591.248 51.7386 588.844 54.517 588.844 58.5398C588.844 62.6051 591.214 65.2642 595.074 65.2642ZM591.393 57.3125C591.495 55.4545 592.842 53.8438 594.913 53.8438C596.89 53.8438 598.185 55.3097 598.194 57.3125H591.393ZM605.611 47.5455H603.062V65H605.611V47.5455ZM611.131 47.5455H608.583V65H611.131V47.5455ZM621.817 56.5199H614.078V58.7273H621.817V56.5199ZM626.436 65L628.038 60.3807H634.856L636.45 65H639.245L632.964 47.5455H629.922L623.64 65H626.436ZM628.805 58.1648L631.379 50.7159H631.515L634.089 58.1648H628.805ZM641.106 65H643.654V57.0057C643.654 55.2926 644.975 54.0568 646.782 54.0568C647.31 54.0568 647.907 54.1506 648.111 54.2102V51.7727C647.856 51.7386 647.353 51.7131 647.029 51.7131C645.495 51.7131 644.182 52.5824 643.705 53.9886H643.569V51.9091H641.106V65ZM654.906 65.2642C658 65.2642 660.003 63.4062 660.284 60.858H657.804C657.48 62.2727 656.38 63.108 654.923 63.108C652.767 63.108 651.378 61.3097 651.378 58.4545C651.378 55.6506 652.792 53.8864 654.923 53.8864C656.542 53.8864 657.531 54.9091 657.804 56.1364H660.284C660.011 53.4943 657.855 51.7386 654.88 51.7386C651.19 51.7386 648.804 54.517 648.804 58.5142C648.804 62.4602 651.105 65.2642 654.906 65.2642ZM665.101 57.2273C665.101 55.1392 666.422 53.946 668.238 53.946C669.993 53.946 671.042 55.0625 671.042 56.9801V65H673.59V56.6733C673.59 53.4091 671.8 51.7386 669.107 51.7386C667.07 51.7386 665.843 52.625 665.229 54.0398H665.067V47.5455H662.553V65H665.101V57.2273ZM676.534 65H679.083V51.9091H676.534V65ZM677.821 49.8892C678.699 49.8892 679.432 49.2074 679.432 48.3722C679.432 47.5369 678.699 46.8466 677.821 46.8466C676.935 46.8466 676.211 47.5369 676.211 48.3722C676.211 49.2074 676.935 49.8892 677.821 49.8892ZM688.166 51.9091H685.481V48.7727H682.933V51.9091H681.015V53.9545H682.933V61.6847C682.924 64.0625 684.74 65.2131 686.751 65.1705C687.561 65.1619 688.106 65.0085 688.404 64.8977L687.944 62.7926C687.774 62.8267 687.458 62.9034 687.049 62.9034C686.223 62.9034 685.481 62.6307 685.481 61.1562V53.9545H688.166V51.9091ZM696.03 65.2642C698.885 65.2642 700.905 63.858 701.485 61.7273L699.073 61.2926C698.612 62.5284 697.505 63.1591 696.056 63.1591C693.874 63.1591 692.408 61.7443 692.34 59.2216H701.647V58.3182C701.647 53.5881 698.817 51.7386 695.851 51.7386C692.203 51.7386 689.8 54.517 689.8 58.5398C689.8 62.6051 692.169 65.2642 696.03 65.2642ZM692.348 57.3125C692.451 55.4545 693.797 53.8438 695.868 53.8438C697.845 53.8438 699.141 55.3097 699.149 57.3125H692.348ZM709.532 65.2642C712.626 65.2642 714.629 63.4062 714.91 60.858H712.43C712.106 62.2727 711.007 63.108 709.549 63.108C707.393 63.108 706.004 61.3097 706.004 58.4545C706.004 55.6506 707.419 53.8864 709.549 53.8864C711.169 53.8864 712.157 54.9091 712.43 56.1364H714.91C714.637 53.4943 712.481 51.7386 709.507 51.7386C705.816 51.7386 703.43 54.517 703.43 58.5142C703.43 62.4602 705.731 65.2642 709.532 65.2642ZM723.29 51.9091H720.605V48.7727H718.057V51.9091H716.139V53.9545H718.057V61.6847C718.048 64.0625 719.864 65.2131 721.875 65.1705C722.685 65.1619 723.23 65.0085 723.529 64.8977L723.068 62.7926C722.898 62.8267 722.583 62.9034 722.173 62.9034C721.347 62.9034 720.605 62.6307 720.605 61.1562V53.9545H723.29V51.9091ZM731.154 65.2642C734.009 65.2642 736.029 63.858 736.609 61.7273L734.197 61.2926C733.737 62.5284 732.629 63.1591 731.18 63.1591C728.998 63.1591 727.532 61.7443 727.464 59.2216H736.771V58.3182C736.771 53.5881 733.941 51.7386 730.975 51.7386C727.328 51.7386 724.924 54.517 724.924 58.5398C724.924 62.6051 727.293 65.2642 731.154 65.2642ZM727.472 57.3125C727.575 55.4545 728.921 53.8438 730.992 53.8438C732.97 53.8438 734.265 55.3097 734.274 57.3125H727.472ZM744.043 65.2557C746.429 65.2557 747.367 63.7983 747.827 62.9631H748.04V65H750.529V47.5455H747.98V54.0312H747.827C747.367 53.2216 746.497 51.7386 744.06 51.7386C740.898 51.7386 738.571 54.2358 738.571 58.4801C738.571 62.7159 740.864 65.2557 744.043 65.2557ZM744.605 63.0824C742.33 63.0824 741.145 61.0795 741.145 58.4545C741.145 55.8551 742.304 53.9034 744.605 53.9034C746.83 53.9034 748.023 55.7188 748.023 58.4545C748.023 61.2074 746.804 63.0824 744.605 63.0824ZM596.274 79.5455H593.64V97H596.274V79.5455ZM601.997 89.2273C601.997 87.1392 603.275 85.946 605.048 85.946C606.778 85.946 607.827 87.0795 607.827 88.9801V97H610.375V88.6733C610.375 85.4347 608.594 83.7386 605.917 83.7386C603.949 83.7386 602.662 84.6506 602.057 86.0398H601.895V83.9091H599.449V97H601.997V89.2273ZM619.447 83.9091H616.763V80.7727H614.214V83.9091H612.297V85.9545H614.214V93.6847C614.206 96.0625 616.021 97.2131 618.032 97.1705C618.842 97.1619 619.388 97.0085 619.686 96.8977L619.226 94.7926C619.055 94.8267 618.74 94.9034 618.331 94.9034C617.504 94.9034 616.763 94.6307 616.763 93.1562V85.9545H619.447V83.9091ZM621.81 97H624.358V89.0057C624.358 87.2926 625.679 86.0568 627.486 86.0568C628.015 86.0568 628.611 86.1506 628.816 86.2102V83.7727C628.56 83.7386 628.057 83.7131 627.733 83.7131C626.199 83.7131 624.887 84.5824 624.41 85.9886H624.273V83.9091H621.81V97ZM635.61 97.2642C639.301 97.2642 641.713 94.5625 641.713 90.5142C641.713 86.4403 639.301 83.7386 635.61 83.7386C631.92 83.7386 629.508 86.4403 629.508 90.5142C629.508 94.5625 631.92 97.2642 635.61 97.2642ZM635.619 95.125C633.207 95.125 632.082 93.0199 632.082 90.5057C632.082 88 633.207 85.8693 635.619 85.8693C638.014 85.8693 639.139 88 639.139 90.5057C639.139 93.0199 638.014 95.125 635.619 95.125ZM649.002 97.2557C651.388 97.2557 652.326 95.7983 652.786 94.9631H652.999V97H655.488V79.5455H652.939V86.0312H652.786C652.326 85.2216 651.456 83.7386 649.019 83.7386C645.857 83.7386 643.53 86.2358 643.53 90.4801C643.53 94.7159 645.823 97.2557 649.002 97.2557ZM649.564 95.0824C647.289 95.0824 646.104 93.0795 646.104 90.4545C646.104 87.8551 647.263 85.9034 649.564 85.9034C651.789 85.9034 652.982 87.7188 652.982 90.4545C652.982 93.2074 651.763 95.0824 649.564 95.0824ZM666.961 91.571C666.97 93.7955 665.316 94.8523 663.885 94.8523C662.308 94.8523 661.217 93.7102 661.217 91.929V83.9091H658.669V92.2358C658.669 95.483 660.45 97.1705 662.964 97.1705C664.933 97.1705 666.271 96.1307 666.876 94.733H667.012V97H669.518V83.9091H666.961V91.571ZM678 97.2642C681.094 97.2642 683.097 95.4062 683.378 92.858H680.898C680.574 94.2727 679.475 95.108 678.017 95.108C675.861 95.108 674.472 93.3097 674.472 90.4545C674.472 87.6506 675.887 85.8864 678.017 85.8864C679.637 85.8864 680.625 86.9091 680.898 88.1364H683.378C683.105 85.4943 680.949 83.7386 677.975 83.7386C674.284 83.7386 671.898 86.517 671.898 90.5142C671.898 94.4602 674.199 97.2642 678 97.2642ZM691.758 83.9091H689.073V80.7727H686.525V83.9091H684.608V85.9545H686.525V93.6847C686.517 96.0625 688.332 97.2131 690.343 97.1705C691.153 97.1619 691.698 97.0085 691.997 96.8977L691.536 94.7926C691.366 94.8267 691.051 94.9034 690.642 94.9034C689.815 94.9034 689.073 94.6307 689.073 93.1562V85.9545H691.758V83.9091ZM694.121 97H696.669V83.9091H694.121V97ZM695.408 81.8892C696.286 81.8892 697.019 81.2074 697.019 80.3722C697.019 79.5369 696.286 78.8466 695.408 78.8466C694.522 78.8466 693.797 79.5369 693.797 80.3722C693.797 81.2074 694.522 81.8892 695.408 81.8892ZM705.156 97.2642C708.846 97.2642 711.258 94.5625 711.258 90.5142C711.258 86.4403 708.846 83.7386 705.156 83.7386C701.465 83.7386 699.053 86.4403 699.053 90.5142C699.053 94.5625 701.465 97.2642 705.156 97.2642ZM705.164 95.125C702.752 95.125 701.627 93.0199 701.627 90.5057C701.627 88 702.752 85.8693 705.164 85.8693C707.559 85.8693 708.684 88 708.684 90.5057C708.684 93.0199 707.559 95.125 705.164 95.125ZM716.195 89.2273C716.195 87.1392 717.473 85.946 719.246 85.946C720.976 85.946 722.024 87.0795 722.024 88.9801V97H724.573V88.6733C724.573 85.4347 722.791 83.7386 720.115 83.7386C718.146 83.7386 716.86 84.6506 716.254 86.0398H716.093V83.9091H713.646V97H716.195V89.2273Z" fill="#333333"/>
<rect x="519" y="336" width="279.941" height="106.455" rx="6" fill="#D99BFF"/>
<rect x="521" y="338" width="275.941" height="102.455" rx="4" stroke="black" stroke-opacity="0.2" stroke-width="4"/>
<path d="M566.048 398H577.537V395.741H569.679V395.614L573.148 391.983C576.344 388.753 577.256 387.21 577.256 385.259C577.256 382.455 574.972 380.307 571.682 380.307C568.418 380.307 566.031 382.42 566.031 385.608H568.545C568.537 383.733 569.747 382.506 571.631 382.506C573.403 382.506 574.75 383.597 574.75 385.335C574.75 386.878 573.83 387.986 571.955 389.972L566.048 396.091V398ZM588.789 390.227C588.789 388.139 590.11 386.946 591.925 386.946C593.681 386.946 594.729 388.062 594.729 389.98V398H597.278V389.673C597.278 386.409 595.488 384.739 592.795 384.739C590.758 384.739 589.53 385.625 588.917 387.04H588.755V380.545H586.241V398H588.789V390.227ZM605.736 398.264C609.427 398.264 611.839 395.562 611.839 391.514C611.839 387.44 609.427 384.739 605.736 384.739C602.046 384.739 599.634 387.44 599.634 391.514C599.634 395.562 602.046 398.264 605.736 398.264ZM605.745 396.125C603.333 396.125 602.208 394.02 602.208 391.506C602.208 389 603.333 386.869 605.745 386.869C608.14 386.869 609.265 389 609.265 391.506C609.265 394.02 608.14 396.125 605.745 396.125ZM622.52 392.571C622.528 394.795 620.875 395.852 619.443 395.852C617.866 395.852 616.775 394.71 616.775 392.929V384.909H614.227V393.236C614.227 396.483 616.008 398.17 618.523 398.17C620.491 398.17 621.829 397.131 622.435 395.733H622.571V398H625.077V384.909H622.52V392.571ZM628.045 398H630.593V390.006C630.593 388.293 631.914 387.057 633.721 387.057C634.249 387.057 634.846 387.151 635.05 387.21V384.773C634.795 384.739 634.292 384.713 633.968 384.713C632.434 384.713 631.121 385.582 630.644 386.989H630.508V384.909H628.045V398ZM646.317 398H648.976L652.65 384.926H652.786L656.459 398H659.11L663.959 380.545H661.181L657.789 394.071H657.627L654.09 380.545H651.346L647.809 394.062H647.647L644.246 380.545H641.476L646.317 398ZM669.925 398.264C673.615 398.264 676.027 395.562 676.027 391.514C676.027 387.44 673.615 384.739 669.925 384.739C666.235 384.739 663.823 387.44 663.823 391.514C663.823 395.562 666.235 398.264 669.925 398.264ZM669.934 396.125C667.522 396.125 666.397 394.02 666.397 391.506C666.397 389 667.522 386.869 669.934 386.869C672.329 386.869 673.454 389 673.454 391.506C673.454 394.02 672.329 396.125 669.934 396.125ZM678.416 398H680.964V390.006C680.964 388.293 682.285 387.057 684.092 387.057C684.62 387.057 685.217 387.151 685.422 387.21V384.773C685.166 384.739 684.663 384.713 684.339 384.713C682.805 384.713 681.493 385.582 681.015 386.989H680.879V384.909H678.416V398ZM687.171 398H689.719V393.355L690.989 392.085L695.438 398H698.566L692.907 390.526L698.208 384.909H695.157L689.941 390.449H689.719V380.545H687.171V398ZM709.884 388.105C709.355 386.068 707.762 384.739 704.932 384.739C701.975 384.739 699.878 386.298 699.878 388.616C699.878 390.474 701.003 391.71 703.458 392.256L705.674 392.741C706.935 393.023 707.523 393.585 707.523 394.403C707.523 395.418 706.441 396.21 704.77 396.21C703.245 396.21 702.265 395.554 701.958 394.267L699.495 394.642C699.921 396.96 701.847 398.264 704.787 398.264C707.949 398.264 710.14 396.585 710.14 394.216C710.14 392.366 708.963 391.224 706.56 390.67L704.48 390.193C703.04 389.852 702.418 389.366 702.426 388.48C702.418 387.474 703.509 386.759 704.958 386.759C706.543 386.759 707.276 387.636 707.574 388.514L709.884 388.105ZM715.034 390.227C715.034 388.139 716.355 386.946 718.17 386.946C719.926 386.946 720.974 388.062 720.974 389.98V398H723.522V389.673C723.522 386.409 721.733 384.739 719.039 384.739C717.002 384.739 715.775 385.625 715.162 387.04H715V380.545H712.485V398H715.034V390.227ZM731.981 398.264C735.671 398.264 738.083 395.562 738.083 391.514C738.083 387.44 735.671 384.739 731.981 384.739C728.291 384.739 725.879 387.44 725.879 391.514C725.879 395.562 728.291 398.264 731.981 398.264ZM731.99 396.125C729.578 396.125 728.453 394.02 728.453 391.506C728.453 389 729.578 386.869 731.99 386.869C734.384 386.869 735.509 389 735.509 391.506C735.509 394.02 734.384 396.125 731.99 396.125ZM740.472 402.909H743.02V395.963H743.174C743.634 396.798 744.571 398.256 746.958 398.256C750.128 398.256 752.429 395.716 752.429 391.48C752.429 387.236 750.094 384.739 746.932 384.739C744.503 384.739 743.625 386.222 743.174 387.031H742.96V384.909H740.472V402.909ZM742.969 391.455C742.969 388.719 744.162 386.903 746.387 386.903C748.696 386.903 749.855 388.855 749.855 391.455C749.855 394.08 748.662 396.082 746.387 396.082C744.196 396.082 742.969 394.207 742.969 391.455Z" fill="#333333"/>
<path d="M655.353 586.341C657.557 584.553 660.712 584.553 662.916 586.341L785.05 684.341C788.009 686.743 788.009 691.257 785.05 693.659L662.916 791.659C660.712 793.447 657.557 793.447 655.353 791.659L533.219 693.659C530.26 691.257 530.26 686.743 533.219 684.341L655.353 586.341Z" fill="#C4C4C4"/>
<path d="M661.664 790.099L661.655 790.106C660.186 791.298 658.083 791.298 656.614 790.106L656.605 790.099L534.479 692.106C534.478 692.105 534.477 692.104 534.476 692.103C532.508 690.502 532.508 687.498 534.476 685.897C534.477 685.896 534.478 685.895 534.479 685.894L656.605 587.901L656.614 587.894C658.083 586.702 660.186 586.702 661.655 587.894L661.664 587.901L783.79 685.894C783.791 685.895 783.792 685.896 783.793 685.897C785.761 687.497 785.761 690.503 783.793 692.103C783.792 692.104 783.791 692.105 783.79 692.106L661.664 790.099Z" stroke="black" stroke-opacity="0.2" stroke-width="4"/>
<path d="M617.815 685.131H620.355C620.279 682.335 617.807 680.307 614.261 680.307C610.759 680.307 608.074 682.31 608.074 685.318C608.074 687.747 609.813 689.17 612.617 689.929L614.679 690.491C616.546 690.986 617.986 691.599 617.986 693.151C617.986 694.855 616.358 695.98 614.117 695.98C612.088 695.98 610.401 695.077 610.247 693.176H607.605C607.776 696.338 610.222 698.29 614.134 698.29C618.233 698.29 620.594 696.134 620.594 693.176C620.594 690.031 617.79 688.812 615.574 688.267L613.869 687.824C612.506 687.474 610.69 686.835 610.699 685.165C610.699 683.682 612.054 682.582 614.202 682.582C616.205 682.582 617.628 683.52 617.815 685.131ZM625.918 680.545H623.285V698H625.918V680.545ZM640.503 698.264C644.193 698.264 646.605 695.562 646.605 691.514C646.605 687.44 644.193 684.739 640.503 684.739C636.813 684.739 634.401 687.44 634.401 691.514C634.401 695.562 636.813 698.264 640.503 698.264ZM640.511 696.125C638.099 696.125 636.974 694.02 636.974 691.506C636.974 689 638.099 686.869 640.511 686.869C642.906 686.869 644.031 689 644.031 691.506C644.031 694.02 642.906 696.125 640.511 696.125ZM648.994 698H651.542V690.006C651.542 688.293 652.863 687.057 654.67 687.057C655.198 687.057 655.795 687.151 655.999 687.21V684.773C655.744 684.739 655.241 684.713 654.917 684.713C653.383 684.713 652.07 685.582 651.593 686.989H651.457V684.909H648.994V698ZM666.482 680.545H663.849V698H666.482V680.545ZM679.381 685.131H681.921C681.844 682.335 679.373 680.307 675.827 680.307C672.324 680.307 669.64 682.31 669.64 685.318C669.64 687.747 671.378 689.17 674.182 689.929L676.245 690.491C678.111 690.986 679.552 691.599 679.552 693.151C679.552 694.855 677.924 695.98 675.682 695.98C673.654 695.98 671.966 695.077 671.813 693.176H669.171C669.341 696.338 671.788 698.29 675.699 698.29C679.799 698.29 682.16 696.134 682.16 693.176C682.16 690.031 679.356 688.812 677.14 688.267L675.435 687.824C674.072 687.474 672.256 686.835 672.265 685.165C672.265 683.682 673.62 682.582 675.768 682.582C677.77 682.582 679.194 683.52 679.381 685.131ZM686.376 680.545H683.53L689.811 698H692.854L699.135 680.545H696.288L691.43 694.761H691.234L686.376 680.545ZM703.782 692.98H706.219V692.818C706.253 690.858 706.816 689.98 708.265 689.085C709.79 688.165 710.728 686.869 710.728 684.952C710.728 682.182 708.631 680.307 705.503 680.307C702.631 680.307 700.33 681.986 700.219 685.054H702.81C702.912 683.247 704.199 682.455 705.503 682.455C706.952 682.455 708.128 683.418 708.128 684.926C708.128 686.196 707.336 687.091 706.322 687.722C704.736 688.693 703.799 689.656 703.782 692.818V692.98ZM705.069 698.162C705.998 698.162 706.773 697.403 706.773 696.457C706.773 695.528 705.998 694.761 705.069 694.761C704.131 694.761 703.364 695.528 703.364 696.457C703.364 697.403 704.131 698.162 705.069 698.162Z" fill="#333333"/>
<path d="M404.353 961.341C406.557 959.553 409.712 959.553 411.916 961.341L534.05 1059.34C537.009 1061.74 537.009 1066.26 534.05 1068.66L411.916 1166.66C409.712 1168.45 406.557 1168.45 404.353 1166.66L282.219 1068.66C279.26 1066.26 279.26 1061.74 282.219 1059.34L404.353 961.341Z" fill="#C4C4C4"/>
<path d="M410.664 1165.1L410.655 1165.11C409.186 1166.3 407.083 1166.3 405.614 1165.11L405.605 1165.1L283.479 1067.11C283.478 1067.1 283.477 1067.1 283.476 1067.1C281.508 1065.5 281.508 1062.5 283.476 1060.9C283.477 1060.9 283.478 1060.9 283.479 1060.89L405.605 962.901L405.614 962.894C407.083 961.702 409.186 961.702 410.655 962.894L410.664 962.901L532.79 1060.89C532.791 1060.9 532.792 1060.9 532.793 1060.9C534.761 1062.5 534.761 1065.5 532.793 1067.1C532.792 1067.1 532.791 1067.1 532.79 1067.11L410.664 1165.1Z" stroke="black" stroke-opacity="0.2" stroke-width="4"/>
<path d="M350.445 1025.81H355.883V1041H358.508V1025.81H363.954V1023.55H350.445V1025.81ZM364.919 1041H367.467V1033.01C367.467 1031.29 368.788 1030.06 370.595 1030.06C371.124 1030.06 371.72 1030.15 371.925 1030.21V1027.77C371.669 1027.74 371.166 1027.71 370.842 1027.71C369.308 1027.71 367.996 1028.58 367.519 1029.99H367.382V1027.91H364.919V1041ZM377.367 1041.29C379.531 1041.29 380.75 1040.19 381.236 1039.21H381.338V1041H383.827V1032.31C383.827 1028.5 380.827 1027.74 378.747 1027.74C376.378 1027.74 374.196 1028.69 373.344 1031.08L375.739 1031.62C376.114 1030.7 377.068 1029.8 378.781 1029.8C380.426 1029.8 381.27 1030.66 381.27 1032.14V1032.2C381.27 1033.13 380.315 1033.12 377.963 1033.39C375.483 1033.68 372.943 1034.33 372.943 1037.3C372.943 1039.88 374.878 1041.29 377.367 1041.29ZM377.921 1039.24C376.48 1039.24 375.44 1038.6 375.44 1037.34C375.44 1035.97 376.651 1035.49 378.125 1035.29C378.952 1035.18 380.912 1034.96 381.278 1034.59V1036.28C381.278 1037.83 380.043 1039.24 377.921 1039.24ZM386.765 1041H389.313V1027.91H386.765V1041ZM388.052 1025.89C388.93 1025.89 389.663 1025.21 389.663 1024.37C389.663 1023.54 388.93 1022.85 388.052 1022.85C387.166 1022.85 386.441 1023.54 386.441 1024.37C386.441 1025.21 387.166 1025.89 388.052 1025.89ZM394.834 1033.23C394.834 1031.14 396.112 1029.95 397.885 1029.95C399.615 1029.95 400.663 1031.08 400.663 1032.98V1041H403.212V1032.67C403.212 1029.43 401.43 1027.74 398.754 1027.74C396.786 1027.74 395.499 1028.65 394.893 1030.04H394.732V1027.91H392.286V1041H394.834V1033.23ZM406.173 1041H408.722V1027.91H406.173V1041ZM407.46 1025.89C408.338 1025.89 409.071 1025.21 409.071 1024.37C409.071 1023.54 408.338 1022.85 407.46 1022.85C406.574 1022.85 405.849 1023.54 405.849 1024.37C405.849 1025.21 406.574 1025.89 407.46 1025.89ZM414.242 1033.23C414.242 1031.14 415.521 1029.95 417.293 1029.95C419.023 1029.95 420.072 1031.08 420.072 1032.98V1041H422.62V1032.67C422.62 1029.43 420.839 1027.74 418.163 1027.74C416.194 1027.74 414.907 1028.65 414.302 1030.04H414.14V1027.91H411.694V1041H414.242V1033.23ZM431.07 1046.16C434.403 1046.16 436.976 1044.63 436.976 1041.29V1027.91H434.479V1030.03H434.292C433.84 1029.22 432.937 1027.74 430.499 1027.74C427.337 1027.74 425.011 1030.24 425.011 1034.4C425.011 1038.58 427.388 1040.8 430.482 1040.8C432.886 1040.8 433.815 1039.45 434.275 1038.61H434.437V1041.19C434.437 1043.21 433.03 1044.1 431.096 1044.1C428.974 1044.1 428.147 1043.04 427.695 1042.31L425.505 1043.22C426.195 1044.79 427.942 1046.16 431.07 1046.16ZM431.045 1038.69C428.769 1038.69 427.584 1036.94 427.584 1034.37C427.584 1031.86 428.744 1029.9 431.045 1029.9C433.269 1029.9 434.462 1031.72 434.462 1034.37C434.462 1037.07 433.244 1038.69 431.045 1038.69ZM451.348 1041.26C455.038 1041.26 457.45 1038.56 457.45 1034.51C457.45 1030.44 455.038 1027.74 451.348 1027.74C447.658 1027.74 445.246 1030.44 445.246 1034.51C445.246 1038.56 447.658 1041.26 451.348 1041.26ZM451.356 1039.12C448.944 1039.12 447.819 1037.02 447.819 1034.51C447.819 1032 448.944 1029.87 451.356 1029.87C453.751 1029.87 454.876 1032 454.876 1034.51C454.876 1037.02 453.751 1039.12 451.356 1039.12ZM459.839 1041H462.387V1033.01C462.387 1031.29 463.708 1030.06 465.515 1030.06C466.043 1030.06 466.64 1030.15 466.844 1030.21V1027.77C466.589 1027.74 466.086 1027.71 465.762 1027.71C464.228 1027.71 462.915 1028.58 462.438 1029.99H462.302V1027.91H459.839V1041ZM370.1 1061.22C369.503 1057.49 366.58 1055.31 362.89 1055.31C358.373 1055.31 355.04 1058.69 355.04 1064.27C355.04 1069.86 358.356 1073.24 362.89 1073.24C366.725 1073.24 369.529 1070.84 370.1 1067.38L367.441 1067.38C366.989 1069.61 365.114 1070.84 362.907 1070.84C359.915 1070.84 357.657 1068.54 357.657 1064.27C357.657 1060.04 359.907 1057.71 362.915 1057.71C365.14 1057.71 367.006 1058.96 367.441 1061.22H370.1ZM380.883 1067.57C380.892 1069.8 379.238 1070.85 377.807 1070.85C376.23 1070.85 375.139 1069.71 375.139 1067.93V1059.91H372.591V1068.24C372.591 1071.48 374.372 1073.17 376.886 1073.17C378.855 1073.17 380.193 1072.13 380.798 1070.73H380.934V1073H383.44V1059.91H380.883V1067.57ZM396.218 1063.11C395.689 1061.07 394.096 1059.74 391.266 1059.74C388.309 1059.74 386.212 1061.3 386.212 1063.62C386.212 1065.47 387.337 1066.71 389.792 1067.26L392.007 1067.74C393.269 1068.02 393.857 1068.59 393.857 1069.4C393.857 1070.42 392.775 1071.21 391.104 1071.21C389.579 1071.21 388.598 1070.55 388.292 1069.27L385.829 1069.64C386.255 1071.96 388.181 1073.26 391.121 1073.26C394.283 1073.26 396.473 1071.59 396.473 1069.22C396.473 1067.37 395.297 1066.22 392.894 1065.67L390.814 1065.19C389.374 1064.85 388.752 1064.37 388.76 1063.48C388.752 1062.47 389.843 1061.76 391.292 1061.76C392.877 1061.76 393.61 1062.64 393.908 1063.51L396.218 1063.11ZM404.93 1059.91H402.245V1056.77H399.697V1059.91H397.779V1061.95H399.697V1069.68C399.689 1072.06 401.504 1073.21 403.515 1073.17C404.325 1073.16 404.87 1073.01 405.169 1072.9L404.708 1070.79C404.538 1070.83 404.223 1070.9 403.814 1070.9C402.987 1070.9 402.245 1070.63 402.245 1069.16V1061.95H404.93V1059.91ZM412.667 1073.26C416.357 1073.26 418.769 1070.56 418.769 1066.51C418.769 1062.44 416.357 1059.74 412.667 1059.74C408.976 1059.74 406.564 1062.44 406.564 1066.51C406.564 1070.56 408.976 1073.26 412.667 1073.26ZM412.675 1071.12C410.263 1071.12 409.138 1069.02 409.138 1066.51C409.138 1064 410.263 1061.87 412.675 1061.87C415.07 1061.87 416.195 1064 416.195 1066.51C416.195 1069.02 415.07 1071.12 412.675 1071.12ZM421.157 1073H423.706V1064.93C423.706 1063.16 424.941 1061.94 426.39 1061.94C427.805 1061.94 428.785 1062.88 428.785 1064.3V1073H431.325V1064.66C431.325 1063.08 432.288 1061.94 433.95 1061.94C435.296 1061.94 436.404 1062.69 436.404 1064.46V1073H438.953V1064.22C438.953 1061.23 437.282 1059.74 434.913 1059.74C433.029 1059.74 431.615 1060.64 430.984 1062.04H430.848C430.277 1060.61 429.075 1059.74 427.328 1059.74C425.598 1059.74 424.311 1060.6 423.765 1062.04H423.603V1059.91H421.157V1073ZM447.554 1073.26C450.409 1073.26 452.429 1071.86 453.009 1069.73L450.597 1069.29C450.137 1070.53 449.029 1071.16 447.58 1071.16C445.398 1071.16 443.932 1069.74 443.864 1067.22H453.171V1066.32C453.171 1061.59 450.341 1059.74 447.375 1059.74C443.728 1059.74 441.324 1062.52 441.324 1066.54C441.324 1070.61 443.693 1073.26 447.554 1073.26ZM443.872 1065.31C443.975 1063.45 445.321 1061.84 447.392 1061.84C449.37 1061.84 450.665 1063.31 450.674 1065.31H443.872ZM455.542 1073H458.09V1065.01C458.09 1063.29 459.411 1062.06 461.218 1062.06C461.747 1062.06 462.343 1062.15 462.548 1062.21V1059.77C462.292 1059.74 461.789 1059.71 461.465 1059.71C459.931 1059.71 458.619 1060.58 458.142 1061.99H458.005V1059.91H455.542V1073ZM360.902 1105H363.561L367.234 1091.93H367.37L371.044 1105H373.694L378.544 1087.55H375.765L372.373 1101.07H372.211L368.674 1087.55H365.93L362.393 1101.06H362.231L358.831 1087.55H356.061L360.902 1105ZM384.51 1105.26C388.2 1105.26 390.612 1102.56 390.612 1098.51C390.612 1094.44 388.2 1091.74 384.51 1091.74C380.819 1091.74 378.407 1094.44 378.407 1098.51C378.407 1102.56 380.819 1105.26 384.51 1105.26ZM384.518 1103.12C382.106 1103.12 380.981 1101.02 380.981 1098.51C380.981 1096 382.106 1093.87 384.518 1093.87C386.913 1093.87 388.038 1096 388.038 1098.51C388.038 1101.02 386.913 1103.12 384.518 1103.12ZM393 1105H395.549V1097.01C395.549 1095.29 396.87 1094.06 398.677 1094.06C399.205 1094.06 399.802 1094.15 400.006 1094.21V1091.77C399.75 1091.74 399.248 1091.71 398.924 1091.71C397.39 1091.71 396.077 1092.58 395.6 1093.99H395.463V1091.91H393V1105ZM401.755 1105H404.304V1100.36L405.573 1099.09L410.022 1105H413.15L407.491 1097.53L412.792 1091.91H409.741L404.525 1097.45H404.304V1087.55H401.755V1105ZM417.207 1087.55H414.659V1105H417.207V1087.55ZM425.693 1105.26C429.384 1105.26 431.796 1102.56 431.796 1098.51C431.796 1094.44 429.384 1091.74 425.693 1091.74C422.003 1091.74 419.591 1094.44 419.591 1098.51C419.591 1102.56 422.003 1105.26 425.693 1105.26ZM425.702 1103.12C423.29 1103.12 422.165 1101.02 422.165 1098.51C422.165 1096 423.29 1093.87 425.702 1093.87C428.097 1093.87 429.222 1096 429.222 1098.51C429.222 1101.02 428.097 1103.12 425.702 1103.12ZM437.994 1105.29C440.159 1105.29 441.377 1104.19 441.863 1103.21H441.965V1105H444.454V1096.31C444.454 1092.5 441.454 1091.74 439.375 1091.74C437.005 1091.74 434.823 1092.69 433.971 1095.08L436.366 1095.62C436.741 1094.7 437.696 1093.8 439.409 1093.8C441.054 1093.8 441.897 1094.66 441.897 1096.14V1096.2C441.897 1097.13 440.943 1097.12 438.59 1097.39C436.11 1097.68 433.571 1098.33 433.571 1101.3C433.571 1103.88 435.505 1105.29 437.994 1105.29ZM438.548 1103.24C437.107 1103.24 436.068 1102.6 436.068 1101.34C436.068 1099.97 437.278 1099.49 438.752 1099.29C439.579 1099.18 441.539 1098.96 441.906 1098.59V1100.28C441.906 1101.83 440.67 1103.24 438.548 1103.24ZM452.293 1105.26C454.679 1105.26 455.617 1103.8 456.077 1102.96H456.29V1105H458.779V1087.55H456.23V1094.03H456.077C455.617 1093.22 454.747 1091.74 452.31 1091.74C449.148 1091.74 446.821 1094.24 446.821 1098.48C446.821 1102.72 449.114 1105.26 452.293 1105.26ZM452.855 1103.08C450.58 1103.08 449.395 1101.08 449.395 1098.45C449.395 1095.86 450.554 1093.9 452.855 1093.9C455.08 1093.9 456.273 1095.72 456.273 1098.45C456.273 1101.21 455.054 1103.08 452.855 1103.08Z" fill="#333333"/>
<rect x="799" y="985" width="279.941" height="157" rx="6" fill="#FFD233"/>
<rect x="801" y="987" width="275.941" height="153" rx="4" stroke="black" stroke-opacity="0.2" stroke-width="4"/>
<path d="M819.553 1041H822.187V1034.39H825.766C825.826 1034.39 825.877 1034.39 825.937 1034.39L829.482 1041H832.482L828.613 1033.93C830.752 1033.14 831.818 1031.36 831.818 1029.02C831.818 1025.8 829.823 1023.55 825.775 1023.55H819.553V1041ZM822.187 1032.13V1025.8H825.494C828.093 1025.8 829.167 1027.04 829.167 1029.02C829.167 1030.99 828.093 1032.13 825.528 1032.13H822.187ZM839.84 1041.26C842.695 1041.26 844.715 1039.86 845.294 1037.73L842.882 1037.29C842.422 1038.53 841.314 1039.16 839.865 1039.16C837.683 1039.16 836.217 1037.74 836.149 1035.22H845.456V1034.32C845.456 1029.59 842.626 1027.74 839.661 1027.74C836.013 1027.74 833.609 1030.52 833.609 1034.54C833.609 1038.61 835.979 1041.26 839.84 1041.26ZM836.158 1033.31C836.26 1031.45 837.607 1029.84 839.678 1029.84C841.655 1029.84 842.95 1031.31 842.959 1033.31H836.158ZM858.628 1027.91H855.892L852.585 1037.98H852.449L849.134 1027.91H846.398L851.153 1041H853.881L858.628 1027.91ZM860.567 1041H863.115V1027.91H860.567V1041ZM861.854 1025.89C862.732 1025.89 863.464 1025.21 863.464 1024.37C863.464 1023.54 862.732 1022.85 861.854 1022.85C860.967 1022.85 860.243 1023.54 860.243 1024.37C860.243 1025.21 860.967 1025.89 861.854 1025.89ZM871.729 1041.26C874.584 1041.26 876.604 1039.86 877.184 1037.73L874.772 1037.29C874.312 1038.53 873.204 1039.16 871.755 1039.16C869.573 1039.16 868.107 1037.74 868.039 1035.22H877.346V1034.32C877.346 1029.59 874.516 1027.74 871.55 1027.74C867.903 1027.74 865.499 1030.52 865.499 1034.54C865.499 1038.61 867.869 1041.26 871.729 1041.26ZM868.048 1033.31C868.15 1031.45 869.496 1029.84 871.567 1029.84C873.545 1029.84 874.84 1031.31 874.849 1033.31H868.048ZM882.532 1041H885.123L887.782 1031.55H887.978L890.637 1041H893.236L897.08 1027.91H894.447L891.898 1037.48H891.771L889.214 1027.91H886.58L884.006 1037.52H883.878L881.313 1027.91H878.68L882.532 1041ZM906.549 1045.88C908.654 1045.88 909.992 1044.78 910.742 1042.75L916.154 1027.93L913.401 1027.91L910.086 1038.07H909.949L906.634 1027.91H903.907L908.697 1041.17L908.381 1042.04C907.734 1043.74 906.822 1043.89 905.424 1043.51L904.81 1045.59C905.117 1045.74 905.782 1045.88 906.549 1045.88ZM923.145 1041.26C926.835 1041.26 929.247 1038.56 929.247 1034.51C929.247 1030.44 926.835 1027.74 923.145 1027.74C919.454 1027.74 917.042 1030.44 917.042 1034.51C917.042 1038.56 919.454 1041.26 923.145 1041.26ZM923.153 1039.12C920.741 1039.12 919.616 1037.02 919.616 1034.51C919.616 1032 920.741 1029.87 923.153 1029.87C925.548 1029.87 926.673 1032 926.673 1034.51C926.673 1037.02 925.548 1039.12 923.153 1039.12ZM939.928 1035.57C939.937 1037.8 938.283 1038.85 936.851 1038.85C935.275 1038.85 934.184 1037.71 934.184 1035.93V1027.91H931.635V1036.24C931.635 1039.48 933.417 1041.17 935.931 1041.17C937.9 1041.17 939.238 1040.13 939.843 1038.73H939.979V1041H942.485V1027.91H939.928V1035.57ZM945.453 1041H948.001V1033.01C948.001 1031.29 949.322 1030.06 951.129 1030.06C951.657 1030.06 952.254 1030.15 952.459 1030.21V1027.77C952.203 1027.74 951.7 1027.71 951.376 1027.71C949.842 1027.71 948.53 1028.58 948.052 1029.99H947.916V1027.91H945.453V1041ZM962.941 1041H965.532L968.191 1031.55H968.387L971.047 1041H973.646L977.49 1027.91H974.856L972.308 1037.48H972.18L969.623 1027.91H966.99L964.416 1037.52H964.288L961.723 1027.91H959.089L962.941 1041ZM984.568 1041.26C988.258 1041.26 990.67 1038.56 990.67 1034.51C990.67 1030.44 988.258 1027.74 984.568 1027.74C980.877 1027.74 978.466 1030.44 978.466 1034.51C978.466 1038.56 980.877 1041.26 984.568 1041.26ZM984.576 1039.12C982.164 1039.12 981.039 1037.02 981.039 1034.51C981.039 1032 982.164 1029.87 984.576 1029.87C986.971 1029.87 988.096 1032 988.096 1034.51C988.096 1037.02 986.971 1039.12 984.576 1039.12ZM993.059 1041H995.607V1033.01C995.607 1031.29 996.928 1030.06 998.735 1030.06C999.263 1030.06 999.86 1030.15 1000.06 1030.21V1027.77C999.809 1027.74 999.306 1027.71 998.982 1027.71C997.448 1027.71 996.135 1028.58 995.658 1029.99H995.522V1027.91H993.059V1041ZM1001.81 1041H1004.36V1036.36L1005.63 1035.09L1010.08 1041H1013.21L1007.55 1033.53L1012.85 1027.91H1009.8L1004.58 1033.45H1004.36V1023.55H1001.81V1041ZM1017.27 1023.55H1014.72V1041H1017.27V1023.55ZM1025.75 1041.26C1029.44 1041.26 1031.85 1038.56 1031.85 1034.51C1031.85 1030.44 1029.44 1027.74 1025.75 1027.74C1022.06 1027.74 1019.65 1030.44 1019.65 1034.51C1019.65 1038.56 1022.06 1041.26 1025.75 1041.26ZM1025.76 1039.12C1023.35 1039.12 1022.22 1037.02 1022.22 1034.51C1022.22 1032 1023.35 1029.87 1025.76 1029.87C1028.16 1029.87 1029.28 1032 1029.28 1034.51C1029.28 1037.02 1028.16 1039.12 1025.76 1039.12ZM1038.05 1041.29C1040.22 1041.29 1041.44 1040.19 1041.92 1039.21H1042.02V1041H1044.51V1032.31C1044.51 1028.5 1041.51 1027.74 1039.43 1027.74C1037.06 1027.74 1034.88 1028.69 1034.03 1031.08L1036.42 1031.62C1036.8 1030.7 1037.75 1029.8 1039.47 1029.8C1041.11 1029.8 1041.96 1030.66 1041.96 1032.14V1032.2C1041.96 1033.13 1041 1033.12 1038.65 1033.39C1036.17 1033.68 1033.63 1034.33 1033.63 1037.3C1033.63 1039.88 1035.56 1041.29 1038.05 1041.29ZM1038.61 1039.24C1037.17 1039.24 1036.13 1038.6 1036.13 1037.34C1036.13 1035.97 1037.34 1035.49 1038.81 1035.29C1039.64 1035.18 1041.6 1034.96 1041.96 1034.59V1036.28C1041.96 1037.83 1040.73 1039.24 1038.61 1039.24ZM1052.35 1041.26C1054.74 1041.26 1055.67 1039.8 1056.14 1038.96H1056.35V1041H1058.84V1023.55H1056.29V1030.03H1056.14C1055.67 1029.22 1054.81 1027.74 1052.37 1027.74C1049.21 1027.74 1046.88 1030.24 1046.88 1034.48C1046.88 1038.72 1049.17 1041.26 1052.35 1041.26ZM1052.91 1039.08C1050.64 1039.08 1049.45 1037.08 1049.45 1034.45C1049.45 1031.86 1050.61 1029.9 1052.91 1029.9C1055.14 1029.9 1056.33 1031.72 1056.33 1034.45C1056.33 1037.21 1055.11 1039.08 1052.91 1039.08ZM851.24 1073H853.831L856.49 1063.55H856.686L859.345 1073H861.944L865.788 1059.91H863.155L860.606 1069.48H860.478L857.922 1059.91H855.288L852.714 1069.52H852.586L850.021 1059.91H847.387L851.24 1073ZM867.75 1073H870.299V1059.91H867.75V1073ZM869.037 1057.89C869.915 1057.89 870.648 1057.21 870.648 1056.37C870.648 1055.54 869.915 1054.85 869.037 1054.85C868.151 1054.85 867.426 1055.54 867.426 1056.37C867.426 1057.21 868.151 1057.89 869.037 1057.89ZM879.382 1059.91H876.697V1056.77H874.149V1059.91H872.231V1061.95H874.149V1069.68C874.14 1072.06 875.956 1073.21 877.967 1073.17C878.777 1073.16 879.322 1073.01 879.62 1072.9L879.16 1070.79C878.99 1070.83 878.674 1070.9 878.265 1070.9C877.439 1070.9 876.697 1070.63 876.697 1069.16V1061.95H879.382V1059.91ZM884.574 1065.23C884.574 1063.14 885.895 1061.95 887.711 1061.95C889.466 1061.95 890.514 1063.06 890.514 1064.98V1073H893.063V1064.67C893.063 1061.41 891.273 1059.74 888.58 1059.74C886.543 1059.74 885.316 1060.62 884.702 1062.04H884.54V1055.55H882.026V1073H884.574V1065.23ZM908.014 1059.91H905.329V1056.77H902.781V1059.91H900.863V1061.95H902.781V1069.68C902.772 1072.06 904.588 1073.21 906.599 1073.17C907.409 1073.16 907.954 1073.01 908.252 1072.9L907.792 1070.79C907.622 1070.83 907.306 1070.9 906.897 1070.9C906.071 1070.9 905.329 1070.63 905.329 1069.16V1061.95H908.014V1059.91ZM913.206 1065.23C913.206 1063.14 914.527 1061.95 916.343 1061.95C918.098 1061.95 919.146 1063.06 919.146 1064.98V1073H921.695V1064.67C921.695 1061.41 919.905 1059.74 917.212 1059.74C915.175 1059.74 913.948 1060.62 913.334 1062.04H913.172V1055.55H910.658V1073H913.206V1065.23ZM930.281 1073.26C933.137 1073.26 935.156 1071.86 935.736 1069.73L933.324 1069.29C932.864 1070.53 931.756 1071.16 930.307 1071.16C928.125 1071.16 926.659 1069.74 926.591 1067.22H935.898V1066.32C935.898 1061.59 933.068 1059.74 930.102 1059.74C926.455 1059.74 924.051 1062.52 924.051 1066.54C924.051 1070.61 926.421 1073.26 930.281 1073.26ZM926.6 1065.31C926.702 1063.45 928.048 1061.84 930.119 1061.84C932.097 1061.84 933.392 1063.31 933.401 1065.31H926.6ZM944.369 1073H947.003V1066.86H950.582C954.631 1066.86 956.634 1064.42 956.634 1061.2C956.634 1057.98 954.648 1055.55 950.591 1055.55H944.369V1073ZM947.003 1064.63V1057.8H950.31C952.918 1057.8 953.983 1059.22 953.983 1061.2C953.983 1063.17 952.918 1064.63 950.344 1064.63H947.003ZM959.06 1073H961.609V1065.01C961.609 1063.29 962.93 1062.06 964.737 1062.06C965.265 1062.06 965.862 1062.15 966.066 1062.21V1059.77C965.81 1059.74 965.308 1059.71 964.984 1059.71C963.45 1059.71 962.137 1060.58 961.66 1061.99H961.523V1059.91H959.06V1073ZM972.861 1073.26C976.551 1073.26 978.963 1070.56 978.963 1066.51C978.963 1062.44 976.551 1059.74 972.861 1059.74C969.17 1059.74 966.759 1062.44 966.759 1066.51C966.759 1070.56 969.17 1073.26 972.861 1073.26ZM972.869 1071.12C970.457 1071.12 969.332 1069.02 969.332 1066.51C969.332 1064 970.457 1061.87 972.869 1061.87C975.264 1061.87 976.389 1064 976.389 1066.51C976.389 1069.02 975.264 1071.12 972.869 1071.12ZM986.866 1073.26C989.959 1073.26 991.962 1071.41 992.244 1068.86H989.763C989.44 1070.27 988.34 1071.11 986.883 1071.11C984.727 1071.11 983.337 1069.31 983.337 1066.45C983.337 1063.65 984.752 1061.89 986.883 1061.89C988.502 1061.89 989.491 1062.91 989.763 1064.14H992.244C991.971 1061.49 989.815 1059.74 986.84 1059.74C983.15 1059.74 980.763 1062.52 980.763 1066.51C980.763 1070.46 983.065 1073.26 986.866 1073.26ZM1000.15 1073.26C1003.01 1073.26 1005.03 1071.86 1005.61 1069.73L1003.2 1069.29C1002.74 1070.53 1001.63 1071.16 1000.18 1071.16C997.999 1071.16 996.533 1069.74 996.464 1067.22H1005.77V1066.32C1005.77 1061.59 1002.94 1059.74 999.976 1059.74C996.328 1059.74 993.925 1062.52 993.925 1066.54C993.925 1070.61 996.294 1073.26 1000.15 1073.26ZM996.473 1065.31C996.575 1063.45 997.922 1061.84 999.993 1061.84C1001.97 1061.84 1003.27 1063.31 1003.27 1065.31H996.473ZM1017.95 1063.11C1017.42 1061.07 1015.83 1059.74 1013 1059.74C1010.04 1059.74 1007.95 1061.3 1007.95 1063.62C1007.95 1065.47 1009.07 1066.71 1011.53 1067.26L1013.74 1067.74C1015 1068.02 1015.59 1068.59 1015.59 1069.4C1015.59 1070.42 1014.51 1071.21 1012.84 1071.21C1011.31 1071.21 1010.33 1070.55 1010.03 1069.27L1007.56 1069.64C1007.99 1071.96 1009.92 1073.26 1012.86 1073.26C1016.02 1073.26 1018.21 1071.59 1018.21 1069.22C1018.21 1067.37 1017.03 1066.22 1014.63 1065.67L1012.55 1065.19C1011.11 1064.85 1010.49 1064.37 1010.49 1063.48C1010.49 1062.47 1011.58 1061.76 1013.03 1061.76C1014.61 1061.76 1015.34 1062.64 1015.64 1063.51L1017.95 1063.11ZM1030.36 1063.11C1029.84 1061.07 1028.24 1059.74 1025.41 1059.74C1022.45 1059.74 1020.36 1061.3 1020.36 1063.62C1020.36 1065.47 1021.48 1066.71 1023.94 1067.26L1026.15 1067.74C1027.41 1068.02 1028 1068.59 1028 1069.4C1028 1070.42 1026.92 1071.21 1025.25 1071.21C1023.72 1071.21 1022.74 1070.55 1022.44 1069.27L1019.97 1069.64C1020.4 1071.96 1022.33 1073.26 1025.27 1073.26C1028.43 1073.26 1030.62 1071.59 1030.62 1069.22C1030.62 1067.37 1029.44 1066.22 1027.04 1065.67L1024.96 1065.19C1023.52 1064.85 1022.9 1064.37 1022.91 1063.48C1022.9 1062.47 1023.99 1061.76 1025.44 1061.76C1027.02 1061.76 1027.76 1062.64 1028.05 1063.51L1030.36 1063.11ZM919.944 1093.06H922.646C922.058 1089.66 919.152 1087.31 915.385 1087.31C910.868 1087.31 907.569 1090.71 907.569 1096.28C907.569 1101.8 910.774 1105.24 915.504 1105.24C919.74 1105.24 922.765 1102.46 922.765 1098.05V1096.07H915.905V1098.24H920.217C920.157 1101.05 918.3 1102.84 915.504 1102.84C912.427 1102.84 910.186 1100.51 910.186 1096.26C910.186 1092.04 912.444 1089.71 915.402 1089.71C917.72 1089.71 919.288 1090.99 919.944 1093.06ZM933.741 1099.57C933.749 1101.8 932.096 1102.85 930.664 1102.85C929.087 1102.85 927.996 1101.71 927.996 1099.93V1091.91H925.448V1100.24C925.448 1103.48 927.229 1105.17 929.743 1105.17C931.712 1105.17 933.05 1104.13 933.655 1102.73H933.792V1105H936.297V1091.91H933.741V1099.57ZM939.265 1105H941.814V1091.91H939.265V1105ZM940.552 1089.89C941.43 1089.89 942.163 1089.21 942.163 1088.37C942.163 1087.54 941.43 1086.85 940.552 1086.85C939.666 1086.85 938.942 1087.54 938.942 1088.37C938.942 1089.21 939.666 1089.89 940.552 1089.89ZM949.687 1105.26C952.073 1105.26 953.01 1103.8 953.471 1102.96H953.684V1105H956.172V1087.55H953.624V1094.03H953.471C953.01 1093.22 952.141 1091.74 949.704 1091.74C946.542 1091.74 944.215 1094.24 944.215 1098.48C944.215 1102.72 946.508 1105.26 949.687 1105.26ZM950.249 1103.08C947.973 1103.08 946.789 1101.08 946.789 1098.45C946.789 1095.86 947.948 1093.9 950.249 1093.9C952.473 1093.9 953.667 1095.72 953.667 1098.45C953.667 1101.21 952.448 1103.08 950.249 1103.08ZM964.995 1105.26C967.851 1105.26 969.87 1103.86 970.45 1101.73L968.038 1101.29C967.578 1102.53 966.47 1103.16 965.021 1103.16C962.839 1103.16 961.373 1101.74 961.305 1099.22H970.612V1098.32C970.612 1093.59 967.782 1091.74 964.816 1091.74C961.169 1091.74 958.765 1094.52 958.765 1098.54C958.765 1102.61 961.135 1105.26 964.995 1105.26ZM961.314 1097.31C961.416 1095.45 962.762 1093.84 964.833 1093.84C966.811 1093.84 968.106 1095.31 968.115 1097.31H961.314Z" fill="#333333"/>
<path d="M660.635 797C660.635 796.172 659.963 795.5 659.135 795.5C658.306 795.5 657.635 796.172 657.635 797H660.635ZM407.074 957.061C407.66 957.646 408.609 957.646 409.195 957.061L418.741 947.515C419.327 946.929 419.327 945.979 418.741 945.393C418.155 944.808 417.206 944.808 416.62 945.393L408.135 953.879L399.649 945.393C399.064 944.808 398.114 944.808 397.528 945.393C396.942 945.979 396.942 946.929 397.528 947.515L407.074 957.061ZM657.635 797V852.5H660.635V797H657.635ZM635.135 875H551.135V878H635.135V875ZM516.135 875H432.135V878H516.135V875ZM406.635 900.5V956H409.635V900.5H406.635ZM432.135 875C418.051 875 406.635 886.417 406.635 900.5H409.635C409.635 888.074 419.708 878 432.135 878V875ZM657.635 852.5C657.635 864.926 647.561 875 635.135 875V878C649.218 878 660.635 866.583 660.635 852.5H657.635Z" fill="#4ECB71"/>
<rect width="35" height="44" transform="translate(516.135 854.5)" fill="white" fill-opacity="0.5"/>
<path d="M533.76 873.92H535.453C535.402 872.057 533.754 870.705 531.39 870.705C529.055 870.705 527.265 872.04 527.265 874.045C527.265 875.665 528.424 876.614 530.294 877.119L531.669 877.494C532.913 877.824 533.873 878.233 533.873 879.267C533.873 880.403 532.788 881.153 531.294 881.153C529.941 881.153 528.816 880.551 528.714 879.284H526.953C527.066 881.392 528.697 882.693 531.305 882.693C534.038 882.693 535.612 881.256 535.612 879.284C535.612 877.188 533.743 876.375 532.265 876.011L531.129 875.716C530.22 875.483 529.01 875.057 529.015 873.943C529.015 872.955 529.919 872.222 531.35 872.222C532.686 872.222 533.635 872.847 533.76 873.92ZM539.29 870.864H537.534V882.5H539.29V870.864Z" fill="#333333"/>
<path d="M660.635 797C660.635 796.172 659.963 795.5 659.135 795.5C658.306 795.5 657.635 796.172 657.635 797H660.635ZM937.91 982.061C938.495 982.646 939.445 982.646 940.031 982.061L949.577 972.515C950.163 971.929 950.163 970.979 949.577 970.393C948.991 969.808 948.041 969.808 947.456 970.393L938.97 978.879L930.485 970.393C929.899 969.808 928.95 969.808 928.364 970.393C927.778 970.979 927.778 971.929 928.364 972.515L937.91 982.061ZM657.635 797V865H660.635V797H657.635ZM683.135 890.5H776.052V887.5H683.135V890.5ZM822.052 890.5H914.97V887.5H822.052V890.5ZM937.47 913V981H940.47V913H937.47ZM914.97 890.5C927.397 890.5 937.47 900.574 937.47 913H940.47C940.47 898.917 929.054 887.5 914.97 887.5V890.5ZM657.635 865C657.635 879.083 669.051 890.5 683.135 890.5V887.5C670.708 887.5 660.635 877.426 660.635 865H657.635Z" fill="#FFD233"/>
<rect width="46" height="44" transform="translate(776.052 867)" fill="white" fill-opacity="0.5"/>
<path d="M789.087 883.364H787.331V895H789.087V883.364ZM797.814 886.42H799.507C799.456 884.557 797.808 883.205 795.445 883.205C793.109 883.205 791.32 884.54 791.32 886.545C791.32 888.165 792.479 889.114 794.348 889.619L795.723 889.994C796.967 890.324 797.928 890.733 797.928 891.767C797.928 892.903 796.842 893.653 795.348 893.653C793.996 893.653 792.871 893.051 792.768 891.784H791.007C791.121 893.892 792.751 895.193 795.359 895.193C798.092 895.193 799.666 893.756 799.666 891.784C799.666 889.688 797.797 888.875 796.32 888.511L795.183 888.216C794.274 887.983 793.064 887.557 793.07 886.443C793.07 885.455 793.973 884.722 795.405 884.722C796.74 884.722 797.689 885.347 797.814 886.42ZM802.605 883.364H800.708L804.895 895H806.923L811.111 883.364H809.213L805.975 892.841H805.844L802.605 883.364Z" fill="#333333"/>
<path d="M660.47 446.455C660.47 445.626 659.799 444.955 658.97 444.955C658.142 444.955 657.47 445.626 657.47 446.455H660.47ZM658.074 582.061C658.66 582.646 659.609 582.646 660.195 582.061L669.741 572.515C670.327 571.929 670.327 570.979 669.741 570.393C669.155 569.808 668.206 569.808 667.62 570.393L659.135 578.879L650.649 570.393C650.063 569.808 649.114 569.808 648.528 570.393C647.942 570.979 647.942 571.929 648.528 572.515L658.074 582.061ZM657.47 446.455V513.645H660.47V446.455H657.47ZM657.635 513.809V581H660.635V513.809H657.635ZM659.052 515.227C658.269 515.227 657.635 514.592 657.635 513.809H660.635C660.635 512.936 659.926 512.227 659.052 512.227V515.227ZM657.47 513.645C657.47 514.519 658.179 515.227 659.052 515.227V512.227C659.835 512.227 660.47 512.862 660.47 513.645H657.47Z" fill="#C4C4C4"/>
<path d="M660.5 148C660.5 147.172 659.828 146.5 659 146.5C658.172 146.5 657.5 147.172 657.5 148H660.5ZM657.91 333.061C658.495 333.646 659.445 333.646 660.031 333.061L669.577 323.515C670.163 322.929 670.163 321.979 669.577 321.393C668.991 320.808 668.041 320.808 667.456 321.393L658.97 329.879L650.485 321.393C649.899 320.808 648.949 320.808 648.364 321.393C647.778 321.979 647.778 322.929 648.364 323.515L657.91 333.061ZM657.5 148V239.985H660.5V148H657.5ZM657.47 240.015V332H660.47V240.015H657.47ZM658.985 238.5C658.149 238.5 657.47 239.178 657.47 240.015H660.47C660.47 240.835 659.805 241.5 658.985 241.5V238.5ZM657.5 239.985C657.5 239.165 658.165 238.5 658.985 238.5V241.5C659.822 241.5 660.5 240.822 660.5 239.985H657.5Z" fill="#C4C4C4"/>
<rect y="1354" width="279.941" height="106.455" rx="6" fill="#D99BFF"/>
<rect x="2" y="1356" width="275.941" height="102.455" rx="4" stroke="black" stroke-opacity="0.2" stroke-width="4"/>
<path d="M95.9665 1416H98.6256L102.299 1402.93H102.435L106.109 1416H108.759L113.609 1398.55H110.83L107.438 1412.07H107.276L103.739 1398.55H100.995L97.4579 1412.06H97.296L93.8954 1398.55H91.1256L95.9665 1416ZM115.528 1416L117.13 1411.38H123.949L125.542 1416H128.338L122.057 1398.55H119.014L112.733 1416H115.528ZM117.898 1409.16L120.471 1401.72H120.608L123.182 1409.16H117.898ZM130.402 1416H133.036V1408.39H140.451V1406.13H133.036V1400.81H141.226V1398.55H130.402V1416ZM149.905 1416H160.447V1413.73H152.538V1398.55H149.905V1416ZM166.601 1416.29C168.765 1416.29 169.984 1415.19 170.47 1414.21H170.572V1416H173.061V1407.31C173.061 1403.5 170.061 1402.74 167.981 1402.74C165.612 1402.74 163.43 1403.69 162.578 1406.08L164.973 1406.62C165.348 1405.7 166.302 1404.8 168.015 1404.8C169.66 1404.8 170.504 1405.66 170.504 1407.14V1407.2C170.504 1408.13 169.549 1408.12 167.197 1408.39C164.717 1408.68 162.177 1409.33 162.177 1412.3C162.177 1414.88 164.112 1416.29 166.601 1416.29ZM167.155 1414.24C165.714 1414.24 164.674 1413.6 164.674 1412.34C164.674 1410.97 165.885 1410.49 167.359 1410.29C168.186 1410.18 170.146 1409.96 170.512 1409.59V1411.28C170.512 1412.83 169.277 1414.24 167.155 1414.24ZM176.203 1416H178.692V1413.96H178.905C179.365 1414.8 180.303 1416.26 182.689 1416.26C185.86 1416.26 188.161 1413.72 188.161 1409.48C188.161 1405.24 185.826 1402.74 182.664 1402.74C180.235 1402.74 179.357 1404.22 178.905 1405.03H178.752V1398.55H176.203V1416ZM178.701 1409.45C178.701 1406.72 179.894 1404.9 182.118 1404.9C184.428 1404.9 185.587 1406.86 185.587 1409.45C185.587 1412.08 184.394 1414.08 182.118 1414.08C179.928 1414.08 178.701 1412.21 178.701 1409.45Z" fill="#333333"/>
<rect x="531" y="1328" width="279.941" height="157" rx="6" fill="#E4A951"/>
<rect x="533" y="1330" width="275.941" height="153" rx="4" stroke="black" stroke-opacity="0.2" stroke-width="4"/>
<path d="M551.553 1384H554.187V1377.39H557.766C557.826 1377.39 557.877 1377.39 557.937 1377.39L561.482 1384H564.482L560.613 1376.93C562.752 1376.14 563.818 1374.36 563.818 1372.02C563.818 1368.8 561.823 1366.55 557.775 1366.55H551.553V1384ZM554.187 1375.13V1368.8H557.494C560.093 1368.8 561.167 1370.04 561.167 1372.02C561.167 1373.99 560.093 1375.13 557.528 1375.13H554.187ZM571.84 1384.26C574.695 1384.26 576.715 1382.86 577.294 1380.73L574.882 1380.29C574.422 1381.53 573.314 1382.16 571.865 1382.16C569.683 1382.16 568.217 1380.74 568.149 1378.22H577.456V1377.32C577.456 1372.59 574.626 1370.74 571.661 1370.74C568.013 1370.74 565.609 1373.52 565.609 1377.54C565.609 1381.61 567.979 1384.26 571.84 1384.26ZM568.158 1376.31C568.26 1374.45 569.607 1372.84 571.678 1372.84C573.655 1372.84 574.95 1374.31 574.959 1376.31H568.158ZM590.628 1370.91H587.892L584.585 1380.98H584.449L581.134 1370.91H578.398L583.153 1384H585.881L590.628 1370.91ZM592.567 1384H595.115V1370.91H592.567V1384ZM593.854 1368.89C594.732 1368.89 595.464 1368.21 595.464 1367.37C595.464 1366.54 594.732 1365.85 593.854 1365.85C592.967 1365.85 592.243 1366.54 592.243 1367.37C592.243 1368.21 592.967 1368.89 593.854 1368.89ZM603.729 1384.26C606.584 1384.26 608.604 1382.86 609.184 1380.73L606.772 1380.29C606.312 1381.53 605.204 1382.16 603.755 1382.16C601.573 1382.16 600.107 1380.74 600.039 1378.22H609.346V1377.32C609.346 1372.59 606.516 1370.74 603.55 1370.74C599.903 1370.74 597.499 1373.52 597.499 1377.54C597.499 1381.61 599.869 1384.26 603.729 1384.26ZM600.048 1376.31C600.15 1374.45 601.496 1372.84 603.567 1372.84C605.545 1372.84 606.84 1374.31 606.849 1376.31H600.048ZM614.532 1384H617.123L619.782 1374.55H619.978L622.637 1384H625.236L629.08 1370.91H626.447L623.898 1380.48H623.771L621.214 1370.91H618.58L616.006 1380.52H615.878L613.313 1370.91H610.68L614.532 1384ZM638.549 1388.88C640.654 1388.88 641.992 1387.78 642.742 1385.75L648.154 1370.93L645.401 1370.91L642.086 1381.07H641.949L638.634 1370.91H635.907L640.697 1384.17L640.381 1385.04C639.734 1386.74 638.822 1386.89 637.424 1386.51L636.81 1388.59C637.117 1388.74 637.782 1388.88 638.549 1388.88ZM655.145 1384.26C658.835 1384.26 661.247 1381.56 661.247 1377.51C661.247 1373.44 658.835 1370.74 655.145 1370.74C651.454 1370.74 649.042 1373.44 649.042 1377.51C649.042 1381.56 651.454 1384.26 655.145 1384.26ZM655.153 1382.12C652.741 1382.12 651.616 1380.02 651.616 1377.51C651.616 1375 652.741 1372.87 655.153 1372.87C657.548 1372.87 658.673 1375 658.673 1377.51C658.673 1380.02 657.548 1382.12 655.153 1382.12ZM671.928 1378.57C671.937 1380.8 670.283 1381.85 668.851 1381.85C667.275 1381.85 666.184 1380.71 666.184 1378.93V1370.91H663.635V1379.24C663.635 1382.48 665.417 1384.17 667.931 1384.17C669.9 1384.17 671.238 1383.13 671.843 1381.73H671.979V1384H674.485V1370.91H671.928V1378.57ZM677.453 1384H680.001V1376.01C680.001 1374.29 681.322 1373.06 683.129 1373.06C683.657 1373.06 684.254 1373.15 684.459 1373.21V1370.77C684.203 1370.74 683.7 1370.71 683.376 1370.71C681.842 1370.71 680.53 1371.58 680.052 1372.99H679.916V1370.91H677.453V1384ZM694.941 1384H697.532L700.191 1374.55H700.387L703.047 1384H705.646L709.49 1370.91H706.856L704.308 1380.48H704.18L701.623 1370.91H698.99L696.416 1380.52H696.288L693.723 1370.91H691.089L694.941 1384ZM716.568 1384.26C720.258 1384.26 722.67 1381.56 722.67 1377.51C722.67 1373.44 720.258 1370.74 716.568 1370.74C712.877 1370.74 710.466 1373.44 710.466 1377.51C710.466 1381.56 712.877 1384.26 716.568 1384.26ZM716.576 1382.12C714.164 1382.12 713.039 1380.02 713.039 1377.51C713.039 1375 714.164 1372.87 716.576 1372.87C718.971 1372.87 720.096 1375 720.096 1377.51C720.096 1380.02 718.971 1382.12 716.576 1382.12ZM725.059 1384H727.607V1376.01C727.607 1374.29 728.928 1373.06 730.735 1373.06C731.263 1373.06 731.86 1373.15 732.064 1373.21V1370.77C731.809 1370.74 731.306 1370.71 730.982 1370.71C729.448 1370.71 728.135 1371.58 727.658 1372.99H727.522V1370.91H725.059V1384ZM733.814 1384H736.362V1379.36L737.632 1378.09L742.081 1384H745.208L739.549 1376.53L744.85 1370.91H741.799L736.583 1376.45H736.362V1366.55H733.814V1384ZM749.265 1366.55H746.717V1384H749.265V1366.55ZM757.752 1384.26C761.442 1384.26 763.854 1381.56 763.854 1377.51C763.854 1373.44 761.442 1370.74 757.752 1370.74C754.061 1370.74 751.649 1373.44 751.649 1377.51C751.649 1381.56 754.061 1384.26 757.752 1384.26ZM757.76 1382.12C755.348 1382.12 754.223 1380.02 754.223 1377.51C754.223 1375 755.348 1372.87 757.76 1372.87C760.155 1372.87 761.28 1375 761.28 1377.51C761.28 1380.02 760.155 1382.12 757.76 1382.12ZM770.052 1384.29C772.217 1384.29 773.436 1383.19 773.921 1382.21H774.024V1384H776.512V1375.31C776.512 1371.5 773.512 1370.74 771.433 1370.74C769.063 1370.74 766.882 1371.69 766.029 1374.08L768.424 1374.62C768.799 1373.7 769.754 1372.8 771.467 1372.8C773.112 1372.8 773.955 1373.66 773.955 1375.14V1375.2C773.955 1376.13 773.001 1376.12 770.649 1376.39C768.169 1376.68 765.629 1377.33 765.629 1380.3C765.629 1382.88 767.563 1384.29 770.052 1384.29ZM770.606 1382.24C769.166 1382.24 768.126 1381.6 768.126 1380.34C768.126 1378.97 769.336 1378.49 770.811 1378.29C771.637 1378.18 773.597 1377.96 773.964 1377.59V1379.28C773.964 1380.83 772.728 1382.24 770.606 1382.24ZM784.351 1384.26C786.737 1384.26 787.675 1382.8 788.135 1381.96H788.348V1384H790.837V1366.55H788.289V1373.03H788.135C787.675 1372.22 786.806 1370.74 784.368 1370.74C781.206 1370.74 778.879 1373.24 778.879 1377.48C778.879 1381.72 781.172 1384.26 784.351 1384.26ZM784.914 1382.08C782.638 1382.08 781.453 1380.08 781.453 1377.45C781.453 1374.86 782.612 1372.9 784.914 1372.9C787.138 1372.9 788.331 1374.72 788.331 1377.45C788.331 1380.21 787.112 1382.08 784.914 1382.08ZM583.24 1416H585.831L588.49 1406.55H588.686L591.345 1416H593.944L597.788 1402.91H595.155L592.606 1412.48H592.478L589.922 1402.91H587.288L584.714 1412.52H584.586L582.021 1402.91H579.387L583.24 1416ZM599.75 1416H602.299V1402.91H599.75V1416ZM601.037 1400.89C601.915 1400.89 602.648 1400.21 602.648 1399.37C602.648 1398.54 601.915 1397.85 601.037 1397.85C600.151 1397.85 599.426 1398.54 599.426 1399.37C599.426 1400.21 600.151 1400.89 601.037 1400.89ZM611.382 1402.91H608.697V1399.77H606.149V1402.91H604.231V1404.95H606.149V1412.68C606.14 1415.06 607.956 1416.21 609.967 1416.17C610.777 1416.16 611.322 1416.01 611.62 1415.9L611.16 1413.79C610.99 1413.83 610.674 1413.9 610.265 1413.9C609.439 1413.9 608.697 1413.63 608.697 1412.16V1404.95H611.382V1402.91ZM616.574 1408.23C616.574 1406.14 617.895 1404.95 619.711 1404.95C621.466 1404.95 622.514 1406.06 622.514 1407.98V1416H625.063V1407.67C625.063 1404.41 623.273 1402.74 620.58 1402.74C618.543 1402.74 617.316 1403.62 616.702 1405.04H616.54V1398.55H614.026V1416H616.574V1408.23ZM640.014 1402.91H637.329V1399.77H634.781V1402.91H632.863V1404.95H634.781V1412.68C634.772 1415.06 636.588 1416.21 638.599 1416.17C639.409 1416.16 639.954 1416.01 640.252 1415.9L639.792 1413.79C639.622 1413.83 639.306 1413.9 638.897 1413.9C638.071 1413.9 637.329 1413.63 637.329 1412.16V1404.95H640.014V1402.91ZM645.206 1408.23C645.206 1406.14 646.527 1404.95 648.343 1404.95C650.098 1404.95 651.146 1406.06 651.146 1407.98V1416H653.695V1407.67C653.695 1404.41 651.905 1402.74 649.212 1402.74C647.175 1402.74 645.948 1403.62 645.334 1405.04H645.172V1398.55H642.658V1416H645.206V1408.23ZM662.281 1416.26C665.137 1416.26 667.156 1414.86 667.736 1412.73L665.324 1412.29C664.864 1413.53 663.756 1414.16 662.307 1414.16C660.125 1414.16 658.659 1412.74 658.591 1410.22H667.898V1409.32C667.898 1404.59 665.068 1402.74 662.102 1402.74C658.455 1402.74 656.051 1405.52 656.051 1409.54C656.051 1413.61 658.421 1416.26 662.281 1416.26ZM658.6 1408.31C658.702 1406.45 660.048 1404.84 662.119 1404.84C664.097 1404.84 665.392 1406.31 665.401 1408.31H658.6ZM676.369 1416H679.003V1409.86H682.582C686.631 1409.86 688.634 1407.42 688.634 1404.2C688.634 1400.98 686.648 1398.55 682.591 1398.55H676.369V1416ZM679.003 1407.63V1400.8H682.31C684.918 1400.8 685.983 1402.22 685.983 1404.2C685.983 1406.17 684.918 1407.63 682.344 1407.63H679.003ZM691.06 1416H693.609V1408.01C693.609 1406.29 694.93 1405.06 696.737 1405.06C697.265 1405.06 697.862 1405.15 698.066 1405.21V1402.77C697.81 1402.74 697.308 1402.71 696.984 1402.71C695.45 1402.71 694.137 1403.58 693.66 1404.99H693.523V1402.91H691.06V1416ZM704.861 1416.26C708.551 1416.26 710.963 1413.56 710.963 1409.51C710.963 1405.44 708.551 1402.74 704.861 1402.74C701.17 1402.74 698.759 1405.44 698.759 1409.51C698.759 1413.56 701.17 1416.26 704.861 1416.26ZM704.869 1414.12C702.457 1414.12 701.332 1412.02 701.332 1409.51C701.332 1407 702.457 1404.87 704.869 1404.87C707.264 1404.87 708.389 1407 708.389 1409.51C708.389 1412.02 707.264 1414.12 704.869 1414.12ZM718.866 1416.26C721.959 1416.26 723.962 1414.41 724.244 1411.86H721.763C721.44 1413.27 720.34 1414.11 718.883 1414.11C716.727 1414.11 715.337 1412.31 715.337 1409.45C715.337 1406.65 716.752 1404.89 718.883 1404.89C720.502 1404.89 721.491 1405.91 721.763 1407.14H724.244C723.971 1404.49 721.815 1402.74 718.84 1402.74C715.15 1402.74 712.763 1405.52 712.763 1409.51C712.763 1413.46 715.065 1416.26 718.866 1416.26ZM732.155 1416.26C735.01 1416.26 737.03 1414.86 737.609 1412.73L735.197 1412.29C734.737 1413.53 733.629 1414.16 732.18 1414.16C729.999 1414.16 728.533 1412.74 728.464 1410.22H737.771V1409.32C737.771 1404.59 734.942 1402.74 731.976 1402.74C728.328 1402.74 725.925 1405.52 725.925 1409.54C725.925 1413.61 728.294 1416.26 732.155 1416.26ZM728.473 1408.31C728.575 1406.45 729.922 1404.84 731.993 1404.84C733.97 1404.84 735.266 1406.31 735.274 1408.31H728.473ZM749.952 1406.11C749.424 1404.07 747.83 1402.74 745.001 1402.74C742.043 1402.74 739.947 1404.3 739.947 1406.62C739.947 1408.47 741.072 1409.71 743.526 1410.26L745.742 1410.74C747.003 1411.02 747.592 1411.59 747.592 1412.4C747.592 1413.42 746.509 1414.21 744.839 1414.21C743.313 1414.21 742.333 1413.55 742.026 1412.27L739.563 1412.64C739.989 1414.96 741.915 1416.26 744.856 1416.26C748.018 1416.26 750.208 1414.59 750.208 1412.22C750.208 1410.37 749.032 1409.22 746.628 1408.67L744.549 1408.19C743.109 1407.85 742.486 1407.37 742.495 1406.48C742.486 1405.47 743.577 1404.76 745.026 1404.76C746.611 1404.76 747.344 1405.64 747.643 1406.51L749.952 1406.11ZM762.364 1406.11C761.835 1404.07 760.241 1402.74 757.412 1402.74C754.454 1402.74 752.358 1404.3 752.358 1406.62C752.358 1408.47 753.483 1409.71 755.937 1410.26L758.153 1410.74C759.415 1411.02 760.003 1411.59 760.003 1412.4C760.003 1413.42 758.92 1414.21 757.25 1414.21C755.724 1414.21 754.744 1413.55 754.437 1412.27L751.974 1412.64C752.4 1414.96 754.327 1416.26 757.267 1416.26C760.429 1416.26 762.619 1414.59 762.619 1412.22C762.619 1410.37 761.443 1409.22 759.04 1408.67L756.96 1408.19C755.52 1407.85 754.898 1407.37 754.906 1406.48C754.898 1405.47 755.989 1404.76 757.437 1404.76C759.023 1404.76 759.756 1405.64 760.054 1406.51L762.364 1406.11ZM651.944 1436.06H654.646C654.058 1432.66 651.152 1430.31 647.385 1430.31C642.868 1430.31 639.569 1433.71 639.569 1439.28C639.569 1444.8 642.774 1448.24 647.504 1448.24C651.74 1448.24 654.765 1445.46 654.765 1441.05V1439.07H647.905V1441.24H652.217C652.157 1444.05 650.3 1445.84 647.504 1445.84C644.427 1445.84 642.186 1443.51 642.186 1439.26C642.186 1435.04 644.444 1432.71 647.402 1432.71C649.72 1432.71 651.288 1433.99 651.944 1436.06ZM665.741 1442.57C665.749 1444.8 664.096 1445.85 662.664 1445.85C661.087 1445.85 659.996 1444.71 659.996 1442.93V1434.91H657.448V1443.24C657.448 1446.48 659.229 1448.17 661.743 1448.17C663.712 1448.17 665.05 1447.13 665.655 1445.73H665.792V1448H668.297V1434.91H665.741V1442.57ZM671.265 1448H673.814V1434.91H671.265V1448ZM672.552 1432.89C673.43 1432.89 674.163 1432.21 674.163 1431.37C674.163 1430.54 673.43 1429.85 672.552 1429.85C671.666 1429.85 670.942 1430.54 670.942 1431.37C670.942 1432.21 671.666 1432.89 672.552 1432.89ZM681.687 1448.26C684.073 1448.26 685.01 1446.8 685.471 1445.96H685.684V1448H688.172V1430.55H685.624V1437.03H685.471C685.01 1436.22 684.141 1434.74 681.704 1434.74C678.542 1434.74 676.215 1437.24 676.215 1441.48C676.215 1445.72 678.508 1448.26 681.687 1448.26ZM682.249 1446.08C679.973 1446.08 678.789 1444.08 678.789 1441.45C678.789 1438.86 679.948 1436.9 682.249 1436.9C684.473 1436.9 685.667 1438.72 685.667 1441.45C685.667 1444.21 684.448 1446.08 682.249 1446.08ZM696.995 1448.26C699.851 1448.26 701.87 1446.86 702.45 1444.73L700.038 1444.29C699.578 1445.53 698.47 1446.16 697.021 1446.16C694.839 1446.16 693.373 1444.74 693.305 1442.22H702.612V1441.32C702.612 1436.59 699.782 1434.74 696.816 1434.74C693.169 1434.74 690.765 1437.52 690.765 1441.54C690.765 1445.61 693.135 1448.26 696.995 1448.26ZM693.314 1440.31C693.416 1438.45 694.762 1436.84 696.833 1436.84C698.811 1436.84 700.106 1438.31 700.115 1440.31H693.314Z" fill="#333333"/>
<path d="M409.635 1172C409.635 1171.17 408.963 1170.5 408.135 1170.5C407.306 1170.5 406.635 1171.17 406.635 1172H409.635ZM138.91 1351.06C139.495 1351.65 140.445 1351.65 141.031 1351.06L150.577 1341.51C151.163 1340.93 151.163 1339.98 150.577 1339.39C149.991 1338.81 149.041 1338.81 148.456 1339.39L139.97 1347.88L131.485 1339.39C130.899 1338.81 129.949 1338.81 129.364 1339.39C128.778 1339.98 128.778 1340.93 129.364 1341.51L138.91 1351.06ZM406.635 1172V1237H409.635V1172H406.635ZM384.135 1259.5H330.552V1262.5H384.135V1259.5ZM217.552 1259.5H163.97V1262.5H217.552V1259.5ZM138.47 1285V1350H141.47V1285H138.47ZM163.97 1259.5C149.887 1259.5 138.47 1270.92 138.47 1285H141.47C141.47 1272.57 151.544 1262.5 163.97 1262.5V1259.5ZM406.635 1237C406.635 1249.43 396.561 1259.5 384.135 1259.5V1262.5C398.218 1262.5 409.635 1251.08 409.635 1237H406.635Z" fill="#4ECB71"/>
<rect width="113" height="44" transform="translate(217.552 1239)" fill="white" fill-opacity="0.5"/>
<path d="M228.831 1267H235.859V1265.49H230.587V1255.36H228.831V1267ZM240.089 1267.19C241.533 1267.19 242.345 1266.46 242.669 1265.81H242.737V1267H244.396V1261.2C244.396 1258.66 242.396 1258.16 241.01 1258.16C239.43 1258.16 237.976 1258.8 237.408 1260.39L239.004 1260.75C239.254 1260.13 239.891 1259.53 241.033 1259.53C242.129 1259.53 242.692 1260.11 242.692 1261.1V1261.14C242.692 1261.76 242.055 1261.74 240.487 1261.93C238.834 1262.12 237.141 1262.55 237.141 1264.53C237.141 1266.25 238.43 1267.19 240.089 1267.19ZM240.459 1265.83C239.499 1265.83 238.805 1265.4 238.805 1264.56C238.805 1263.65 239.612 1263.32 240.595 1263.19C241.146 1263.12 242.453 1262.97 242.697 1262.73V1263.85C242.697 1264.89 241.874 1265.83 240.459 1265.83ZM246.619 1267H248.279V1265.64H248.421C248.727 1266.2 249.352 1267.17 250.943 1267.17C253.057 1267.17 254.591 1265.48 254.591 1262.65C254.591 1259.82 253.034 1258.16 250.926 1258.16C249.307 1258.16 248.722 1259.15 248.421 1259.69H248.318V1255.36H246.619V1267ZM248.284 1262.64C248.284 1260.81 249.08 1259.6 250.563 1259.6C252.102 1259.6 252.875 1260.9 252.875 1262.64C252.875 1264.39 252.08 1265.72 250.563 1265.72C249.102 1265.72 248.284 1264.47 248.284 1262.64ZM259.944 1256.88H263.569V1267H265.319V1256.88H268.949V1255.36H259.944V1256.88ZM269.721 1267H271.42V1261.67C271.42 1260.53 272.3 1259.7 273.505 1259.7C273.857 1259.7 274.255 1259.77 274.391 1259.81V1258.18C274.221 1258.16 273.885 1258.14 273.67 1258.14C272.647 1258.14 271.772 1258.72 271.454 1259.66H271.363V1258.27H269.721V1267ZM278.147 1267.19C279.59 1267.19 280.403 1266.46 280.727 1265.81H280.795V1267H282.454V1261.2C282.454 1258.66 280.454 1258.16 279.067 1258.16C277.488 1258.16 276.033 1258.8 275.465 1260.39L277.062 1260.75C277.312 1260.13 277.948 1259.53 279.09 1259.53C280.187 1259.53 280.749 1260.11 280.749 1261.1V1261.14C280.749 1261.76 280.113 1261.74 278.545 1261.93C276.891 1262.12 275.198 1262.55 275.198 1264.53C275.198 1266.25 276.488 1267.19 278.147 1267.19ZM278.516 1265.83C277.556 1265.83 276.863 1265.4 276.863 1264.56C276.863 1263.65 277.67 1263.32 278.653 1263.19C279.204 1263.12 280.511 1262.97 280.755 1262.73V1263.85C280.755 1264.89 279.931 1265.83 278.516 1265.83ZM284.541 1267H286.239V1258.27H284.541V1267ZM285.399 1256.93C285.984 1256.93 286.472 1256.47 286.472 1255.91C286.472 1255.36 285.984 1254.9 285.399 1254.9C284.808 1254.9 284.325 1255.36 284.325 1255.91C284.325 1256.47 284.808 1256.93 285.399 1256.93ZM290.048 1261.82C290.048 1260.43 290.9 1259.63 292.082 1259.63C293.235 1259.63 293.934 1260.39 293.934 1261.65V1267H295.633V1261.45C295.633 1259.29 294.446 1258.16 292.661 1258.16C291.349 1258.16 290.491 1258.77 290.088 1259.69H289.98V1258.27H288.349V1267H290.048V1261.82ZM297.735 1267H299.434V1258.27H297.735V1267ZM298.593 1256.93C299.179 1256.93 299.667 1256.47 299.667 1255.91C299.667 1255.36 299.179 1254.9 298.593 1254.9C298.003 1254.9 297.52 1255.36 297.52 1255.91C297.52 1256.47 298.003 1256.93 298.593 1256.93ZM303.243 1261.82C303.243 1260.43 304.095 1259.63 305.277 1259.63C306.43 1259.63 307.129 1260.39 307.129 1261.65V1267H308.828V1261.45C308.828 1259.29 307.64 1258.16 305.856 1258.16C304.544 1258.16 303.686 1258.77 303.282 1259.69H303.175V1258.27H301.544V1267H303.243V1261.82ZM314.589 1270.44C316.811 1270.44 318.527 1269.42 318.527 1267.19V1258.27H316.862V1259.69H316.737C316.436 1259.15 315.834 1258.16 314.209 1258.16C312.101 1258.16 310.55 1259.82 310.55 1262.6C310.55 1265.39 312.135 1266.87 314.197 1266.87C315.8 1266.87 316.419 1265.97 316.726 1265.41H316.834V1267.12C316.834 1268.47 315.896 1269.07 314.606 1269.07C313.192 1269.07 312.641 1268.36 312.339 1267.88L310.879 1268.48C311.339 1269.53 312.504 1270.44 314.589 1270.44ZM314.572 1265.46C313.055 1265.46 312.266 1264.3 312.266 1262.58C312.266 1260.9 313.038 1259.6 314.572 1259.6C316.055 1259.6 316.851 1260.81 316.851 1262.58C316.851 1264.38 316.038 1265.46 314.572 1265.46Z" fill="#333333"/>
<path d="M409.635 1172C409.635 1171.17 408.963 1170.5 408.135 1170.5C407.306 1170.5 406.635 1171.17 406.635 1172H409.635ZM669.91 1325.06C670.495 1325.65 671.445 1325.65 672.031 1325.06L681.577 1315.51C682.163 1314.93 682.163 1313.98 681.577 1313.39C680.991 1312.81 680.041 1312.81 679.456 1313.39L670.97 1321.88L662.485 1313.39C661.899 1312.81 660.95 1312.81 660.364 1313.39C659.778 1313.98 659.778 1314.93 660.364 1315.51L669.91 1325.06ZM406.635 1172V1224H409.635V1172H406.635ZM432.135 1249.5H492.552V1246.5H432.135V1249.5ZM586.552 1249.5H646.97V1246.5H586.552V1249.5ZM669.47 1272V1324H672.47V1272H669.47ZM646.97 1249.5C659.397 1249.5 669.47 1259.57 669.47 1272H672.47C672.47 1257.92 661.054 1246.5 646.97 1246.5V1249.5ZM406.635 1224C406.635 1238.08 418.051 1249.5 432.135 1249.5V1246.5C419.708 1246.5 409.635 1236.43 409.635 1224H406.635Z" fill="#E4A951"/>
<rect width="94" height="44" transform="translate(492.552 1226)" fill="white" fill-opacity="0.5"/>
<path d="M513.496 1246.15C513.098 1243.66 511.149 1242.2 508.689 1242.2C505.677 1242.2 503.456 1244.46 503.456 1248.18C503.456 1251.9 505.666 1254.16 508.689 1254.16C511.246 1254.16 513.115 1252.56 513.496 1250.26L511.723 1250.25C511.422 1251.74 510.172 1252.56 508.7 1252.56C506.706 1252.56 505.2 1251.03 505.2 1248.18C505.2 1245.36 506.7 1243.81 508.706 1243.81C510.189 1243.81 511.433 1244.64 511.723 1246.15H513.496ZM520.812 1250.38C520.818 1251.86 519.716 1252.57 518.761 1252.57C517.71 1252.57 516.983 1251.81 516.983 1250.62V1245.27H515.284V1250.82C515.284 1252.99 516.472 1254.11 518.148 1254.11C519.46 1254.11 520.352 1253.42 520.756 1252.49H520.847V1254H522.517V1245.27H520.812V1250.38ZM531.163 1247.4C530.811 1246.05 529.749 1245.16 527.862 1245.16C525.891 1245.16 524.493 1246.2 524.493 1247.74C524.493 1248.98 525.243 1249.81 526.879 1250.17L528.357 1250.49C529.198 1250.68 529.59 1251.06 529.59 1251.6C529.59 1252.28 528.868 1252.81 527.754 1252.81C526.737 1252.81 526.084 1252.37 525.879 1251.51L524.237 1251.76C524.521 1253.31 525.806 1254.18 527.766 1254.18C529.874 1254.18 531.334 1253.06 531.334 1251.48C531.334 1250.24 530.55 1249.48 528.948 1249.11L527.561 1248.8C526.601 1248.57 526.186 1248.24 526.192 1247.65C526.186 1246.98 526.913 1246.51 527.879 1246.51C528.936 1246.51 529.425 1247.09 529.624 1247.68L531.163 1247.4ZM537.1 1245.27H535.31V1243.18H533.611V1245.27H532.333V1246.64H533.611V1251.79C533.605 1253.38 534.816 1254.14 536.157 1254.11C536.696 1254.11 537.06 1254.01 537.259 1253.93L536.952 1252.53C536.838 1252.55 536.628 1252.6 536.355 1252.6C535.804 1252.6 535.31 1252.42 535.31 1251.44V1246.64H537.1V1245.27ZM542.385 1254.18C544.846 1254.18 546.454 1252.38 546.454 1249.68C546.454 1246.96 544.846 1245.16 542.385 1245.16C539.925 1245.16 538.317 1246.96 538.317 1249.68C538.317 1252.38 539.925 1254.18 542.385 1254.18ZM542.391 1252.75C540.783 1252.75 540.033 1251.35 540.033 1249.67C540.033 1248 540.783 1246.58 542.391 1246.58C543.988 1246.58 544.738 1248 544.738 1249.67C544.738 1251.35 543.988 1252.75 542.391 1252.75ZM548.174 1254H549.873V1248.62C549.873 1247.44 550.697 1246.62 551.662 1246.62C552.606 1246.62 553.259 1247.25 553.259 1248.2V1254H554.952V1248.44C554.952 1247.39 555.594 1246.62 556.702 1246.62C557.6 1246.62 558.339 1247.12 558.339 1248.31V1254H560.037V1248.15C560.037 1246.15 558.924 1245.16 557.344 1245.16C556.089 1245.16 555.145 1245.76 554.725 1246.69H554.634C554.253 1245.74 553.452 1245.16 552.287 1245.16C551.134 1245.16 550.276 1245.73 549.912 1246.69H549.805V1245.27H548.174V1254ZM565.9 1254.18C567.803 1254.18 569.15 1253.24 569.536 1251.82L567.928 1251.53C567.621 1252.35 566.883 1252.77 565.917 1252.77C564.462 1252.77 563.485 1251.83 563.44 1250.15H569.644V1249.55C569.644 1246.39 567.758 1245.16 565.781 1245.16C563.349 1245.16 561.746 1247.01 561.746 1249.69C561.746 1252.4 563.326 1254.18 565.9 1254.18ZM563.445 1248.88C563.513 1247.64 564.411 1246.56 565.792 1246.56C567.11 1246.56 567.974 1247.54 567.979 1248.88H563.445ZM571.353 1254H573.052V1248.67C573.052 1247.53 573.933 1246.7 575.137 1246.7C575.489 1246.7 575.887 1246.77 576.024 1246.81V1245.18C575.853 1245.16 575.518 1245.14 575.302 1245.14C574.279 1245.14 573.404 1245.72 573.086 1246.66H572.995V1245.27H571.353V1254Z" fill="#333333"/>
<rect x="235" y="2006" width="345.809" height="128" rx="44.8" fill="#FF9790"/>
<rect x="237" y="2008" width="341.809" height="124" rx="42.8" stroke="black" stroke-opacity="0.2" stroke-width="4"/>
<path d="M272.08 2063H274.739L278.413 2049.93H278.549L282.222 2063H284.873L289.722 2045.55H286.944L283.552 2059.07H283.39L279.853 2045.55H277.109L273.572 2059.06H273.41L270.009 2045.55H267.239L272.08 2063ZM295.816 2063.26C298.671 2063.26 300.691 2061.86 301.271 2059.73L298.859 2059.29C298.398 2060.53 297.291 2061.16 295.842 2061.16C293.66 2061.16 292.194 2059.74 292.126 2057.22H301.433V2056.32C301.433 2051.59 298.603 2049.74 295.637 2049.74C291.989 2049.74 289.586 2052.52 289.586 2056.54C289.586 2060.61 291.955 2063.26 295.816 2063.26ZM292.134 2055.31C292.237 2053.45 293.583 2051.84 295.654 2051.84C297.631 2051.84 298.927 2053.31 298.935 2055.31H292.134ZM306.352 2045.55H303.804V2063H306.352V2045.55ZM311.873 2045.55H309.325V2063H311.873V2045.55ZM322.558 2054.52H314.82V2056.73H322.558V2054.52ZM327.177 2063L328.78 2058.38H335.598L337.192 2063H339.987L333.706 2045.55H330.663L324.382 2063H327.177ZM329.547 2056.16L332.121 2048.72H332.257L334.831 2056.16H329.547ZM341.847 2063H344.395V2055.01C344.395 2053.29 345.716 2052.06 347.523 2052.06C348.052 2052.06 348.648 2052.15 348.853 2052.21V2049.77C348.597 2049.74 348.094 2049.71 347.77 2049.71C346.236 2049.71 344.924 2050.58 344.447 2051.99H344.31V2049.91H341.847V2063ZM355.648 2063.26C358.741 2063.26 360.744 2061.41 361.025 2058.86H358.545C358.221 2060.27 357.122 2061.11 355.665 2061.11C353.508 2061.11 352.119 2059.31 352.119 2056.45C352.119 2053.65 353.534 2051.89 355.665 2051.89C357.284 2051.89 358.273 2052.91 358.545 2054.14H361.025C360.753 2051.49 358.596 2049.74 355.622 2049.74C351.932 2049.74 349.545 2052.52 349.545 2056.51C349.545 2060.46 351.846 2063.26 355.648 2063.26ZM365.843 2055.23C365.843 2053.14 367.164 2051.95 368.979 2051.95C370.735 2051.95 371.783 2053.06 371.783 2054.98V2063H374.331V2054.67C374.331 2051.41 372.542 2049.74 369.849 2049.74C367.812 2049.74 366.584 2050.62 365.971 2052.04H365.809V2045.55H363.295V2063H365.843V2055.23ZM377.276 2063H379.824V2049.91H377.276V2063ZM378.563 2047.89C379.441 2047.89 380.174 2047.21 380.174 2046.37C380.174 2045.54 379.441 2044.85 378.563 2044.85C377.677 2044.85 376.952 2045.54 376.952 2046.37C376.952 2047.21 377.677 2047.89 378.563 2047.89ZM388.907 2049.91H386.223V2046.77H383.674V2049.91H381.757V2051.95H383.674V2059.68C383.666 2062.06 385.481 2063.21 387.493 2063.17C388.302 2063.16 388.848 2063.01 389.146 2062.9L388.686 2060.79C388.515 2060.83 388.2 2060.9 387.791 2060.9C386.964 2060.9 386.223 2060.63 386.223 2059.16V2051.95H388.907V2049.91ZM396.772 2063.26C399.627 2063.26 401.647 2061.86 402.226 2059.73L399.814 2059.29C399.354 2060.53 398.246 2061.16 396.797 2061.16C394.615 2061.16 393.15 2059.74 393.081 2057.22H402.388V2056.32C402.388 2051.59 399.559 2049.74 396.593 2049.74C392.945 2049.74 390.542 2052.52 390.542 2056.54C390.542 2060.61 392.911 2063.26 396.772 2063.26ZM393.09 2055.31C393.192 2053.45 394.539 2051.84 396.61 2051.84C398.587 2051.84 399.882 2053.31 399.891 2055.31H393.09ZM410.274 2063.26C413.368 2063.26 415.37 2061.41 415.652 2058.86H413.172C412.848 2060.27 411.748 2061.11 410.291 2061.11C408.135 2061.11 406.745 2059.31 406.745 2056.45C406.745 2053.65 408.16 2051.89 410.291 2051.89C411.91 2051.89 412.899 2052.91 413.172 2054.14H415.652C415.379 2051.49 413.223 2049.74 410.248 2049.74C406.558 2049.74 404.172 2052.52 404.172 2056.51C404.172 2060.46 406.473 2063.26 410.274 2063.26ZM424.032 2049.91H421.347V2046.77H418.799V2049.91H416.881V2051.95H418.799V2059.68C418.79 2062.06 420.605 2063.21 422.617 2063.17C423.426 2063.16 423.972 2063.01 424.27 2062.9L423.81 2060.79C423.64 2060.83 423.324 2060.9 422.915 2060.9C422.088 2060.9 421.347 2060.63 421.347 2059.16V2051.95H424.032V2049.91ZM431.896 2063.26C434.751 2063.26 436.771 2061.86 437.35 2059.73L434.938 2059.29C434.478 2060.53 433.37 2061.16 431.921 2061.16C429.74 2061.16 428.274 2059.74 428.206 2057.22H437.512V2056.32C437.512 2051.59 434.683 2049.74 431.717 2049.74C428.069 2049.74 425.666 2052.52 425.666 2056.54C425.666 2060.61 428.035 2063.26 431.896 2063.26ZM428.214 2055.31C428.316 2053.45 429.663 2051.84 431.734 2051.84C433.711 2051.84 435.007 2053.31 435.015 2055.31H428.214ZM444.784 2063.26C447.171 2063.26 448.108 2061.8 448.568 2060.96H448.782V2063H451.27V2045.55H448.722V2052.03H448.568C448.108 2051.22 447.239 2049.74 444.801 2049.74C441.639 2049.74 439.313 2052.24 439.313 2056.48C439.313 2060.72 441.605 2063.26 444.784 2063.26ZM445.347 2061.08C443.071 2061.08 441.887 2059.08 441.887 2056.45C441.887 2053.86 443.046 2051.9 445.347 2051.9C447.571 2051.9 448.764 2053.72 448.764 2056.45C448.764 2059.21 447.546 2061.08 445.347 2061.08ZM475.713 2054.27C475.713 2048.69 472.372 2045.31 467.855 2045.31C463.321 2045.31 459.989 2048.69 459.989 2054.27C459.989 2059.85 463.321 2063.24 467.855 2063.24C472.372 2063.24 475.713 2059.86 475.713 2054.27ZM473.105 2054.27C473.105 2058.53 470.855 2060.84 467.855 2060.84C464.847 2060.84 462.605 2058.53 462.605 2054.27C462.605 2050.02 464.847 2047.71 467.855 2047.71C470.855 2047.71 473.105 2050.02 473.105 2054.27ZM484.566 2049.91H481.745V2048.73C481.745 2047.57 482.222 2046.94 483.467 2046.94C483.995 2046.94 484.37 2047.06 484.609 2047.14L485.205 2045.08C484.847 2044.94 484.106 2044.73 483.075 2044.73C481.004 2044.73 479.188 2045.94 479.188 2048.39V2049.91H477.168V2051.95H479.188V2063H481.745V2051.95H484.566V2049.91ZM492.97 2049.91H490.149V2048.73C490.149 2047.57 490.626 2046.94 491.87 2046.94C492.399 2046.94 492.774 2047.06 493.012 2047.14L493.609 2045.08C493.251 2044.94 492.509 2044.73 491.478 2044.73C489.407 2044.73 487.592 2045.94 487.592 2048.39V2049.91H485.572V2051.95H487.592V2063H490.149V2051.95H492.97V2049.91ZM500.269 2063.26C503.124 2063.26 505.144 2061.86 505.724 2059.73L503.312 2059.29C502.852 2060.53 501.744 2061.16 500.295 2061.16C498.113 2061.16 496.647 2059.74 496.579 2057.22H505.886V2056.32C505.886 2051.59 503.056 2049.74 500.09 2049.74C496.443 2049.74 494.039 2052.52 494.039 2056.54C494.039 2060.61 496.408 2063.26 500.269 2063.26ZM496.587 2055.31C496.69 2053.45 498.036 2051.84 500.107 2051.84C502.085 2051.84 503.38 2053.31 503.389 2055.31H496.587ZM508.257 2063H510.805V2055.01C510.805 2053.29 512.126 2052.06 513.933 2052.06C514.462 2052.06 515.058 2052.15 515.263 2052.21V2049.77C515.007 2049.74 514.504 2049.71 514.18 2049.71C512.646 2049.71 511.334 2050.58 510.857 2051.99H510.72V2049.91H508.257V2063ZM517.012 2063H519.56V2049.91H517.012V2063ZM518.299 2047.89C519.177 2047.89 519.91 2047.21 519.91 2046.37C519.91 2045.54 519.177 2044.85 518.299 2044.85C517.413 2044.85 516.688 2045.54 516.688 2046.37C516.688 2047.21 517.413 2047.89 518.299 2047.89ZM525.081 2055.23C525.081 2053.14 526.359 2051.95 528.132 2051.95C529.862 2051.95 530.91 2053.08 530.91 2054.98V2063H533.459V2054.67C533.459 2051.43 531.678 2049.74 529.001 2049.74C527.033 2049.74 525.746 2050.65 525.141 2052.04H524.979V2049.91H522.533V2063H525.081V2055.23ZM541.909 2068.16C545.241 2068.16 547.815 2066.63 547.815 2063.29V2049.91H545.318V2052.03H545.131C544.679 2051.22 543.776 2049.74 541.338 2049.74C538.176 2049.74 535.849 2052.24 535.849 2056.4C535.849 2060.58 538.227 2062.8 541.321 2062.8C543.724 2062.8 544.653 2061.45 545.114 2060.61H545.276V2063.19C545.276 2065.21 543.869 2066.1 541.935 2066.1C539.812 2066.1 538.986 2065.04 538.534 2064.31L536.344 2065.22C537.034 2066.79 538.781 2068.16 541.909 2068.16ZM541.883 2060.69C539.608 2060.69 538.423 2058.94 538.423 2056.37C538.423 2053.86 539.582 2051.9 541.883 2051.9C544.108 2051.9 545.301 2053.72 545.301 2056.37C545.301 2059.07 544.082 2060.69 541.883 2060.69ZM369.818 2095.26C372.911 2095.26 374.914 2093.41 375.195 2090.86H372.715C372.391 2092.27 371.292 2093.11 369.835 2093.11C367.678 2093.11 366.289 2091.31 366.289 2088.45C366.289 2085.65 367.704 2083.89 369.835 2083.89C371.454 2083.89 372.443 2084.91 372.715 2086.14H375.195C374.923 2083.49 372.766 2081.74 369.792 2081.74C366.102 2081.74 363.715 2084.52 363.715 2088.51C363.715 2092.46 366.016 2095.26 369.818 2095.26ZM377.465 2095H380.013V2087.01C380.013 2085.29 381.334 2084.06 383.141 2084.06C383.669 2084.06 384.266 2084.15 384.47 2084.21V2081.77C384.215 2081.74 383.712 2081.71 383.388 2081.71C381.854 2081.71 380.541 2082.58 380.064 2083.99H379.928V2081.91H377.465V2095ZM391.393 2095.26C394.248 2095.26 396.268 2093.86 396.847 2091.73L394.435 2091.29C393.975 2092.53 392.867 2093.16 391.418 2093.16C389.237 2093.16 387.771 2091.74 387.702 2089.22H397.009V2088.32C397.009 2083.59 394.18 2081.74 391.214 2081.74C387.566 2081.74 385.163 2084.52 385.163 2088.54C385.163 2092.61 387.532 2095.26 391.393 2095.26ZM387.711 2087.31C387.813 2085.45 389.16 2083.84 391.231 2083.84C393.208 2083.84 394.504 2085.31 394.512 2087.31H387.711ZM403.19 2095.29C405.355 2095.29 406.574 2094.19 407.06 2093.21H407.162V2095H409.651V2086.31C409.651 2082.5 406.651 2081.74 404.571 2081.74C402.202 2081.74 400.02 2082.69 399.168 2085.08L401.563 2085.62C401.938 2084.7 402.892 2083.8 404.605 2083.8C406.25 2083.8 407.094 2084.66 407.094 2086.14V2086.2C407.094 2087.13 406.139 2087.12 403.787 2087.39C401.307 2087.68 398.767 2088.33 398.767 2091.3C398.767 2093.88 400.702 2095.29 403.19 2095.29ZM403.744 2093.24C402.304 2093.24 401.264 2092.6 401.264 2091.34C401.264 2089.97 402.474 2089.49 403.949 2089.29C404.776 2089.18 406.736 2088.96 407.102 2088.59V2090.28C407.102 2091.83 405.866 2093.24 403.744 2093.24ZM418.7 2081.91H416.015V2078.77H413.467V2081.91H411.549V2083.95H413.467V2091.68C413.458 2094.06 415.273 2095.21 417.285 2095.17C418.094 2095.16 418.64 2095.01 418.938 2094.9L418.478 2092.79C418.308 2092.83 417.992 2092.9 417.583 2092.9C416.756 2092.9 416.015 2092.63 416.015 2091.16V2083.95H418.7V2081.91ZM421.062 2095H423.611V2081.91H421.062V2095ZM422.349 2079.89C423.227 2079.89 423.96 2079.21 423.96 2078.37C423.96 2077.54 423.227 2076.85 422.349 2076.85C421.463 2076.85 420.739 2077.54 420.739 2078.37C420.739 2079.21 421.463 2079.89 422.349 2079.89ZM432.097 2095.26C435.788 2095.26 438.199 2092.56 438.199 2088.51C438.199 2084.44 435.788 2081.74 432.097 2081.74C428.407 2081.74 425.995 2084.44 425.995 2088.51C425.995 2092.56 428.407 2095.26 432.097 2095.26ZM432.106 2093.12C429.694 2093.12 428.569 2091.02 428.569 2088.51C428.569 2086 429.694 2083.87 432.106 2083.87C434.501 2083.87 435.626 2086 435.626 2088.51C435.626 2091.02 434.501 2093.12 432.106 2093.12ZM443.136 2087.23C443.136 2085.14 444.415 2083.95 446.187 2083.95C447.917 2083.95 448.966 2085.08 448.966 2086.98V2095H451.514V2086.67C451.514 2083.43 449.733 2081.74 447.057 2081.74C445.088 2081.74 443.801 2082.65 443.196 2084.04H443.034V2081.91H440.588V2095H443.136V2087.23Z" fill="#333333"/>
<path d="M141.47 1464.45C141.47 1463.63 140.799 1462.95 139.97 1462.95C139.142 1462.95 138.47 1463.63 138.47 1464.45H141.47ZM406.91 1705.06C407.495 1705.65 408.445 1705.65 409.031 1705.06L418.577 1695.51C419.163 1694.93 419.163 1693.98 418.577 1693.39C417.991 1692.81 417.041 1692.81 416.456 1693.39L407.97 1701.88L399.485 1693.39C398.899 1692.81 397.949 1692.81 397.364 1693.39C396.778 1693.98 396.778 1694.93 397.364 1695.51L406.91 1705.06ZM138.47 1464.45V1560.23H141.47V1464.45H138.47ZM163.97 1585.73H383.97V1582.73H163.97V1585.73ZM406.47 1608.23V1704H409.47V1608.23H406.47ZM383.97 1585.73C396.397 1585.73 406.47 1595.8 406.47 1608.23H409.47C409.47 1594.14 398.054 1582.73 383.97 1582.73V1585.73ZM138.47 1560.23C138.47 1574.31 149.887 1585.73 163.97 1585.73V1582.73C151.544 1582.73 141.47 1572.65 141.47 1560.23H138.47Z" fill="#4ECB71"/>
<path d="M672.47 1489C672.47 1488.17 671.799 1487.5 670.97 1487.5C670.142 1487.5 669.47 1488.17 669.47 1489H672.47ZM406.91 1705.06C407.495 1705.65 408.445 1705.65 409.031 1705.06L418.577 1695.51C419.163 1694.93 419.163 1693.98 418.577 1693.39C417.991 1692.81 417.041 1692.81 416.456 1693.39L407.97 1701.88L399.485 1693.39C398.899 1692.81 397.949 1692.81 397.364 1693.39C396.778 1693.98 396.778 1694.93 397.364 1695.51L406.91 1705.06ZM669.47 1489V1572.5H672.47V1489H669.47ZM646.97 1595H431.97V1598H646.97V1595ZM406.47 1620.5V1704H409.47V1620.5H406.47ZM431.97 1595C417.887 1595 406.47 1606.42 406.47 1620.5H409.47C409.47 1608.07 419.544 1598 431.97 1598V1595ZM669.47 1572.5C669.47 1584.93 659.397 1595 646.97 1595V1598C661.054 1598 672.47 1586.58 672.47 1572.5H669.47Z" fill="#E4A951"/>
<path d="M409.47 1818.45C409.47 1817.63 408.799 1816.95 407.97 1816.95C407.142 1816.95 406.47 1817.63 406.47 1818.45H409.47ZM406.844 2003.06C407.43 2003.65 408.379 2003.65 408.965 2003.06L418.511 1993.51C419.097 1992.93 419.097 1991.98 418.511 1991.39C417.925 1990.81 416.976 1990.81 416.39 1991.39L407.904 1999.88L399.419 1991.39C398.833 1990.81 397.884 1990.81 397.298 1991.39C396.712 1991.98 396.712 1992.93 397.298 1993.51L406.844 2003.06ZM406.47 1818.45V1910.19H409.47V1818.45H406.47ZM406.404 1910.26V2002H409.404V1910.26H406.404ZM407.937 1908.73C407.091 1908.73 406.404 1909.41 406.404 1910.26H409.404C409.404 1911.07 408.748 1911.73 407.937 1911.73V1908.73ZM406.47 1910.19C406.47 1909.38 407.127 1908.73 407.937 1908.73V1911.73C408.784 1911.73 409.47 1911.04 409.47 1910.19H406.47Z" fill="#4ECB71"/>
<path d="M940.47 1146C940.47 1145.17 939.799 1144.5 938.97 1144.5C938.142 1144.5 937.47 1145.17 937.47 1146H940.47ZM937.844 2003.06C938.43 2003.65 939.379 2003.65 939.965 2003.06L949.511 1993.51C950.097 1992.93 950.097 1991.98 949.511 1991.39C948.925 1990.81 947.976 1990.81 947.39 1991.39L938.904 1999.88L930.419 1991.39C929.833 1990.81 928.884 1990.81 928.298 1991.39C927.712 1991.98 927.712 1992.93 928.298 1993.51L937.844 2003.06ZM937.47 1146V1573.97H940.47V1146H937.47ZM937.404 1574.03V2002H940.404V1574.03H937.404ZM938.937 1572.5C938.091 1572.5 937.404 1573.19 937.404 1574.03H940.404C940.404 1574.84 939.748 1575.5 938.937 1575.5V1572.5ZM937.47 1573.97C937.47 1573.16 938.127 1572.5 938.937 1572.5V1575.5C939.784 1575.5 940.47 1574.81 940.47 1573.97H937.47Z" fill="#FFD233"/>
</svg>
